<?xml version="1.0"?>
<svg xmlns:rdf="http://www.w3.org/1999/02/22-rdf-syntax-ns#" xmlns="http://www.w3.org/2000/svg" xmlns:cc="http://creativecommons.org/ns#" xmlns:xlink="http://www.w3.org/1999/xlink" xmlns:dc="http://purl.org/dc/elements/1.1/" id="svg2" viewBox="0 0 128 128" version="1.0">
  <defs id="defs4">
    <linearGradient id="linearGradient2320">
      <stop id="stop2322" stop-color="#6a3c1d" offset="0"/>
      <stop id="stop2324" stop-color="#8f5127" offset="1"/>
    </linearGradient>
    <linearGradient id="linearGradient3332">
      <stop id="stop3334" stop-color="#bb8f56" offset="0"/>
      <stop id="stop3336" stop-color="#d1af63" offset="1"/>
    </linearGradient>
    <linearGradient id="linearGradient3494">
      <stop id="stop3496" stop-color="#cf8d00" offset="0"/>
      <stop id="stop3498" stop-color="#cea33e" offset="1"/>
    </linearGradient>
    <linearGradient id="linearGradient2593" x1="88.002" xlink:href="#linearGradient3332" gradientUnits="userSpaceOnUse" x2="84.027" y1="43.545" y2="48.468"/>
    <linearGradient id="linearGradient2597" x1="116.07" xlink:href="#linearGradient3332" gradientUnits="userSpaceOnUse" x2="115.46" y1="66.264" y2="67.059"/>
    <linearGradient id="linearGradient2607" x1="92.834" xlink:href="#linearGradient3332" gradientUnits="userSpaceOnUse" x2="91.519" y1="51.678" y2="53.115"/>
    <linearGradient id="linearGradient2622" x1="115.03" xlink:href="#linearGradient3332" gradientUnits="userSpaceOnUse" x2="115.62" y1="82.094" y2="83.531"/>
    <linearGradient id="linearGradient2626" x1="92.688" xlink:href="#linearGradient3332" gradientUnits="userSpaceOnUse" x2="93.344" y1="88" y2="89.969"/>
    <linearGradient id="linearGradient2658" x1="101" xlink:href="#linearGradient3332" gradientUnits="userSpaceOnUse" x2="102.69" y1="85.344" y2="89.562"/>
    <linearGradient id="linearGradient2662" x1="16.781" xlink:href="#linearGradient3332" gradientUnits="userSpaceOnUse" x2="18.281" y1="51.188" y2="56.844"/>
    <linearGradient id="linearGradient2672" x1="19.344" xlink:href="#linearGradient3332" gradientUnits="userSpaceOnUse" x2="20.094" y1="51.125" y2="53.031"/>
    <linearGradient id="linearGradient2682" x1="5.5312" xlink:href="#linearGradient3332" gradientUnits="userSpaceOnUse" x2="36.781" y1="54.047" y2="54.047"/>
    <linearGradient id="linearGradient2688" x1="18.969" xlink:href="#linearGradient3332" gradientUnits="userSpaceOnUse" x2="18.062" y1="73.094" y2="74.438"/>
    <linearGradient id="linearGradient2692" x1="18.969" xlink:href="#linearGradient3332" gradientUnits="userSpaceOnUse" y1="73.094" gradientTransform="translate(-.28125 4.0938)" x2="18.062" y2="74.438"/>
    <linearGradient id="linearGradient2749" x1="26.369" xlink:href="#linearGradient3332" gradientUnits="userSpaceOnUse" x2="23.604" y1="77.891" y2="81.466"/>
    <linearGradient id="linearGradient3340" x1="21.282" xlink:href="#linearGradient3494" gradientUnits="userSpaceOnUse" x2="21.71" y1="83.846" y2="77.211"/>
    <linearGradient id="linearGradient3346" x1="57.109" xlink:href="#linearGradient3494" gradientUnits="userSpaceOnUse" x2="53.387" y1="79.393" y2="72.691"/>
    <linearGradient id="linearGradient3350" x1="52.411" xlink:href="#linearGradient3494" gradientUnits="userSpaceOnUse" x2="8.9946" y1="69.016" y2="39.784"/>
    <linearGradient id="linearGradient3355" x1="73.859" xlink:href="#linearGradient3494" gradientUnits="userSpaceOnUse" x2="79.375" y1="77.146" y2="73.828"/>
    <linearGradient id="linearGradient3359" x1="108.23" xlink:href="#linearGradient3494" gradientUnits="userSpaceOnUse" x2="106.56" y1="78.869" y2="75.625"/>
    <linearGradient id="linearGradient3363" x1="106.21" xlink:href="#linearGradient3494" gradientUnits="userSpaceOnUse" x2="91.33" y1="75.416" y2="65.819"/>
    <linearGradient id="linearGradient3415">
      <stop id="stop3417" stop-color="#1a1a1a" offset="0"/>
      <stop id="stop3419" stop-color="#2b2b2b" offset="1"/>
    </linearGradient>
    <linearGradient id="linearGradient2338">
      <stop id="stop2340" stop-color="#b1b1b1" offset="0"/>
      <stop id="stop2342" stop-color="#e4e4e4" offset="1"/>
    </linearGradient>
    <linearGradient id="linearGradient3803" x1="56.001" xlink:href="#linearGradient2320" gradientUnits="userSpaceOnUse" x2="59.143" y1="88.842" y2="96.425"/>
    <linearGradient id="linearGradient3807" x1="62.555" xlink:href="#linearGradient2320" gradientUnits="userSpaceOnUse" x2="65.588" y1="95.829" y2="89.763"/>
    <linearGradient id="linearGradient3811" x1="60.388" xlink:href="#linearGradient2320" gradientUnits="userSpaceOnUse" x2="62.067" y1="89.763" y2="84.022"/>
    <linearGradient id="linearGradient3815" x1="60.28" xlink:href="#linearGradient2320" gradientUnits="userSpaceOnUse" x2="59.522" y1="86.784" y2="87.705"/>
    <linearGradient id="linearGradient3819" x1="62.88" xlink:href="#linearGradient2320" gradientUnits="userSpaceOnUse" x2="63.746" y1="86.134" y2="87.705"/>
    <linearGradient id="linearGradient3823" x1="67.212" xlink:href="#linearGradient2320" gradientUnits="userSpaceOnUse" x2="66.508" y1="71.349" y2="72.053"/>
    <linearGradient id="linearGradient3827" x1="71.166" xlink:href="#linearGradient2320" gradientUnits="userSpaceOnUse" x2="70.164" y1="85.322" y2="85.322"/>
    <linearGradient id="linearGradient3831" x1="59.684" xlink:href="#linearGradient3415" gradientUnits="userSpaceOnUse" x2="61.959" y1="80.069" y2="80.123"/>
    <linearGradient id="linearGradient3835" x1="61.201" xlink:href="#linearGradient3415" gradientUnits="userSpaceOnUse" x2="61.065" y1="77.577" y2="78.823"/>
    <linearGradient id="linearGradient3855" x1="41.935" xlink:href="#linearGradient3494" gradientUnits="userSpaceOnUse" x2="47.641" y1="29.539" y2="41.985"/>
    <linearGradient id="linearGradient3857" x1="59.743" xlink:href="#linearGradient3494" gradientUnits="userSpaceOnUse" x2="62.73" y1="40.109" y2="23.718"/>
    <linearGradient id="linearGradient3861" x1="47.171" xlink:href="#linearGradient2338" gradientUnits="userSpaceOnUse" x2="48.084" y1="86.808" y2="49.893"/>
    <linearGradient id="linearGradient3865" x1="68.584" xlink:href="#linearGradient2338" gradientUnits="userSpaceOnUse" x2="67.027" y1="64" y2="50.032"/>
    <linearGradient id="linearGradient3869" x1="40.173" xlink:href="#linearGradient2320" gradientUnits="userSpaceOnUse" x2="45.362" y1="43.416" y2="52.368"/>
    <linearGradient id="linearGradient3886" x1="73.804" xlink:href="#linearGradient2320" gradientUnits="userSpaceOnUse" x2="71.462" y1="42.617" y2="49.865"/>
    <linearGradient id="linearGradient3890" x1="71.948" xlink:href="#linearGradient2320" gradientUnits="userSpaceOnUse" x2="75.042" y1="52.384" y2="49.997"/>
    <linearGradient id="linearGradient3894" x1="72.788" xlink:href="#linearGradient2320" gradientUnits="userSpaceOnUse" x2="73.583" y1="53.71" y2="52.207"/>
    <linearGradient id="linearGradient3898" x1="56.591" xlink:href="#linearGradient2320" gradientUnits="userSpaceOnUse" x2="55.972" y1="51.378" y2="57.853"/>
    <linearGradient id="linearGradient3902" x1="62.888" xlink:href="#linearGradient2320" gradientUnits="userSpaceOnUse" x2="63.198" y1="51.213" y2="55.875"/>
    <linearGradient id="linearGradient3909" x1="59.043" xlink:href="#linearGradient2320" gradientUnits="userSpaceOnUse" x2="59.088" y1="53.511" y2="55.544"/>
    <linearGradient id="linearGradient3922" x1="57.74" xlink:href="#linearGradient2320" gradientUnits="userSpaceOnUse" x2="61.739" y1="58.792" y2="49.268"/>
    <linearGradient id="linearGradient3926" x1="59.198" xlink:href="#linearGradient2320" gradientUnits="userSpaceOnUse" x2="59.463" y1="51.544" y2="51.522"/>
    <linearGradient id="linearGradient3930" x1="61.474" xlink:href="#linearGradient2320" gradientUnits="userSpaceOnUse" x2="61.761" y1="51.544" y2="51.754"/>
    <linearGradient id="linearGradient3934" x1="62.513" xlink:href="#linearGradient2320" gradientUnits="userSpaceOnUse" x2="62.535" y1="53.621" y2="54.063"/>
    <linearGradient id="linearGradient3938" x1="61.629" xlink:href="#linearGradient2320" gradientUnits="userSpaceOnUse" x2="61.452" y1="55.765" y2="55.941"/>
    <linearGradient id="linearGradient3942" x1="60.215" xlink:href="#linearGradient2320" gradientUnits="userSpaceOnUse" x2="59.839" y1="57.709" y2="57.753"/>
    <linearGradient id="linearGradient3946" x1="57.894" xlink:href="#linearGradient2320" gradientUnits="userSpaceOnUse" x2="58.137" y1="56.847" y2="57.024"/>
    <linearGradient id="linearGradient3950" x1="57.475" xlink:href="#linearGradient2320" gradientUnits="userSpaceOnUse" x2="57.519" y1="54.748" y2="55.091"/>
    <linearGradient id="linearGradient3954" x1="58.115" xlink:href="#linearGradient2320" gradientUnits="userSpaceOnUse" x2="57.85" y1="52.715" y2="53.058"/>
    <linearGradient id="linearGradient3958" x1="59.949" xlink:href="#linearGradient2320" gradientUnits="userSpaceOnUse" x2="60.436" y1="55.013" y2="53.444"/>
    <linearGradient id="linearGradient3964" x1="51" xlink:href="#linearGradient2338" gradientUnits="userSpaceOnUse" x2="54.447" y1="17.691" y2="18.818"/>
    <linearGradient id="linearGradient3968" x1="51.575" xlink:href="#linearGradient2338" gradientUnits="userSpaceOnUse" x2="53.851" y1="15.084" y2="17.78"/>
    <linearGradient id="linearGradient3972" x1="58.248" xlink:href="#linearGradient2338" gradientUnits="userSpaceOnUse" x2="60.237" y1="17.117" y2="15.172"/>
    <linearGradient id="linearGradient3976" x1="55.906" xlink:href="#linearGradient2338" gradientUnits="userSpaceOnUse" x2="56.927" y1="15.791" y2="12.963"/>
    <linearGradient id="linearGradient3980" x1="56.966" xlink:href="#linearGradient2338" gradientUnits="userSpaceOnUse" x2="56.834" y1="13.449" y2="15.658"/>
    <filter id="filter4075">
      <feGaussianBlur id="feGaussianBlur4077" stdDeviation="0.8000368"/>
    </filter>
    <filter id="filter4117">
      <feGaussianBlur id="feGaussianBlur4119" stdDeviation="0.38725176"/>
    </filter>
    <linearGradient id="linearGradient4123" x1="69.665" xlink:href="#linearGradient2320" gradientUnits="userSpaceOnUse" x2="70.53" y1="53.924" y2="55.524"/>
    <filter id="filter3200">
      <feGaussianBlur id="feGaussianBlur3202" stdDeviation="0.43664801"/>
    </filter>
  </defs>
  <g id="layer2" fill-rule="evenodd">
    <path id="path2597" filter="url(#filter3200)" fill-opacity=".66667" d="m80.725 77.975l-15.534-10.274 0.082-3.271 21.567-8.838 14.19 12.231-20.305 10.152z"/>
    <path id="path4079" filter="url(#filter4117)" fill-opacity=".66667" d="m57.059 73.708c-1.289 0.912-0.141 2.013 1.386 2.644 3.487 2.042 5.245 2.874 8.732 4.917-0.795 1.373-2.522-1.738-2.28-0.418 0.301 1.023 1.556 1.797 2.372 2.68 0.412 2.239 2.169 4.416 2.581 6.654 1.17 0.069 2.631 0.335 1.627-0.826-0.874-2.196-2.483-4.515-3.358-6.711 0.2-1.24 1.633 0.276 2.458 0.604 2.6 1.522 5.2 3.043 7.8 4.565 2.053 0.347 0.808-0.992-0.279-1.357-3.032-1.861-6.064-3.722-9.096-5.582 0.717-0.704 0.124-1.615-0.638-0.576-1.017-0.181-2.05-1.191-3.071-1.692-3.321-2.038-4.912-2.865-8.234-4.902zm1.195 7.931c-1.817 0.104-2.935 1.127-2.019 2.327 0.642 1.195 2.908 0.659 4.289 0.785 1.774-0.101 0.995-1.488 1.11-2.306 0.15-0.655-0.187-0.467-0.649-0.363 0.419-0.601-1.721-0.246-2.396-0.426l-0.335-0.017zm2.197 0.803c-0.444 0.29-1.122 0.313-0.159 0.055l0.159-0.055zm-4.214 0.021c0.853 0.298 2.383 0.369 2.883 0.324-0.929 0.128-2.01 0.096-2.883-0.324zm4.588 2.389c-1.686-0.125-2.987 0.471-4.402 0.84-1.327 0.407-3.453 3.16-4.715 3.612 0.206 1.801 1.02 2.743 1.281 4.55 2.289 1.194 3.272 2.002 5.561 3.197 0.391-0.745 1.233-2.848 1.186-3.674-0.21-0.879-0.419-1.758-0.629-2.636-0.8-0.473-2.59-1.511-2.76-1.623 0.944 0.737 3.004 1.163 2.948 2.175 0.365 1.49 0.714 2.981 1.071 4.472 2.72-0.851 5.439-1.702 8.159-2.553-0.485-1.689-0.97-3.377-1.455-5.066-1.182 0.382-3.841 1.257-4.079 1.325 1.213-0.527 3.49-0.968 4.041-1.547l-6.207-3.072z"/>
    <path id="path3988" filter="url(#filter4075)" fill-opacity=".66667" d="m40.706 33.527c-1.941 1.12-6.543 2.425-8.026 3.832-1.503 1.121-1.087 2.21-2.523 3.367-0.03 1.194 2.95 0.733 3.246 1.892 2.621 0.619 0.641 3.114 1.551 4.487 0.356 1.484 0.845 2.964 1.045 4.452 4.831 2.575 8.459 5.444 14.702 7.181-1.883-11.529 0.475-13.382 2.349-2.382 6.944-1.374 23.404-4.162 26.155-10.143-0.173-2.075-6.551-3.457-7.692-5.474 1.673-0.011 1.168-1.606 2.993-1.705-0.266-1.057 2.796-1.209 0.419-2.053-30.341-15.37-16.556-7.801-34.219-3.454z"/>
    <path id="path3361" fill="url(#linearGradient3363)" d="m67.728 61.753l0.861-0.972 0.796 0.552 0.641-0.751 0.751 0.663 0.729-1.459 0.707 0.42 0.774-0.994 0.972 0.442 0.552-0.95 0.796 0.861 0.751-1.524 0.84 0.596 0.707-0.486 0.84-0.088 0.685-0.995 0.751 0.376 0.663-1.503 0.928 0.752 0.641-0.553 0.839 0.31 0.73-0.641 0.773 0.442 0.818-0.995 0.685 0.42 0.795-0.972 0.818 0.265 0.729-0.884 0.795 0.376 0.73-0.972 0.574 0.309 0.818-1.26 0.795 0.796 0.729-0.022s0.42 1.016 0.509 1.016c0.088 0 0.884-0.066 0.884-0.066l0.596 0.884 0.84-0.155 0.353 1.216 1.061-0.663 0.309 1.701 0.906-0.398 0.464 1.392 0.884 0.023 0.376 1.016 0.857 0.044 0.45 1.017 0.73 0.243 0.55 1.37 0.9-0.575 0.42 1.194 0.95-0.089s0.36 1.105 0.45 1.105c0.08 0 0.86-0.066 0.86-0.066l0.46 1.171 0.84-0.044 0.49 1.149 0.84 0.022 0.44 1.038 0.84-0.199 0.53 1.282 0.82-0.044 0.48 1.105 0.84-0.155 0.47 1.238-1.24-0.155-0.4 0.928-1.01-0.84-0.36 1.304-0.84-0.398-0.48 1.061-0.78-0.177-0.55 0.751-0.93-0.972-0.51 1.127-0.68-0.088-0.55 0.994-0.91-1.083-0.53 1.171-0.75 0.155-0.53 0.774-0.77-0.442-0.47 0.751-0.79-0.508-0.689 0.906-0.708-0.045-0.574 1.083-0.641-1.127-0.729 1.967-0.685-0.508-0.597 0.397-0.685-0.839-0.552 1.171-0.685-0.442-0.619 0.972-0.862-1.79-0.707 2.917-6.231-3.513-11.159-8.331-6.209-5.502z"/>
    <path id="path3348" fill="url(#linearGradient3350)" d="m7.7119 60.228l0.5745 0.354 0.4419 0.066 0.4199-0.795s0.7292 0.353 0.8838 0.198c0.155-0.154 0.442-0.839 0.442-0.839l0.994 0.243 0.398-0.774 0.906 0.199 0.53-0.861 0.818 0.154 0.597-1.591 0.795 0.995 0.53-0.774 0.818 0.221 0.575-0.53 0.707-0.111 0.618-0.906 0.818 0.266 0.575-1.039 0.751 0.398 0.663-1.171 0.729 0.552 0.619-0.597 0.773 0.045 0.575-0.774 0.707 0.155 0.641-0.663 0.729-0.044 0.862-1.061 0.64 0.442 0.553-0.575 0.641 0.111 0.773-1.127 0.84 1.215 0.884 0.067 0.662 0.972 0.774-0.221 0.862 1.237 0.729-0.088 0.795 1.083 0.818-0.111 0.751 1.105 0.862 0.089 0.773 1.016h0.818l0.751 0.906 0.995-0.066 0.574 1.105 0.884-0.376 0.796 1.525 0.729 0.132 0.707 0.862 0.906 0.177 0.663 0.773 1.171-0.53 0.53 1.613 0.663-0.022 0.84 1.038 0.928-0.199 0.818 1.15h0.729l0.729 1.082h0.773l0.774 1.171 0.795 0.31s-0.729 1.944-1.016 2.077c-0.287 0.132-16.551 7.248-16.551 7.248l-4.464 1.988s-2.121-0.685-2.386-0.795-12.352-8.463-12.352-8.463l-10.607-8.441-0.0441-0.796z"/>
    <path id="path3344" fill="url(#linearGradient3346)" d="m33.079 78.414l0.177 1.061 0.022 1.768-0.088 1.767-0.641 2.387-0.287 0.817 1.171 0.398 3.359-2.143 15.048-7.248 3.579-1.878 0.354-3.867-0.331-2.033-0.288-2.011-0.773 0.552-0.442 0.641-0.243 0.553-0.818-0.464-0.64 0.596-0.663 0.044-0.774 0.685-0.773-0.022-0.663 0.663-0.53-0.751-0.884 1.458-0.685-0.11-0.73 0.729-0.662-0.641-0.84 1.348-0.575-0.088-0.795 0.685-0.663-0.067-0.751 0.774-0.796-0.31-0.619 0.641-0.53-0.641-0.884 1.216-0.685 0.022-1.48 1.502-0.685-0.088-0.818 0.641-0.574-0.773-0.752 1.524-0.685-0.154-0.663 0.817z"/>
    <path id="path3338" d="m7.5832 60.209l0.4893 0.337 0.581 1.009 1.2231 0.336 0.2754 0.826 1.162 0.03 0.397 1.04 1.132 0.306 0.428 0.764 1.131 0.306 0.764 1.07 0.734-0.306 0.398 1.224 1.009-0.245 0.52 1.315 1.101 0.275 0.397 0.856 1.04-0.52 0.581 1.621 0.886 0.214 0.612 1.223 0.826-0.03 0.672 0.764 0.856 0.183 0.643 0.979 0.886 0.122 0.52 0.979 1.07-0.49 0.581 1.56 0.795 0.122 0.765 1.009 0.795-0.214 0.703 1.101 0.856-1.131 0.704 1.437 0.122 1.682 0.061 1.284v1.07l-0.642 2.844-0.887 1.345-24.431-18.713 0.3666-5.81-0.1224-1.774z" fill="url(#linearGradient3340)"/>
    <path id="path2591" fill="url(#linearGradient2593)" d="m82.595 48.735l0.216-9.47 0.346-0.476 2.338 1.851 0.122 2.11 0.734 0.55 0.092-1.621 0.183-0.519 2.324 2.079 0.061 2.14 0.826 0.612 0.031-1.712 0.336-0.367 2.263 1.895-0.092 2.019 1.498 1.284 0.123-1.682 0.336-0.397 2.324 1.957-0.184 2.201 1.804 1.162 0.092-1.743 0.367-0.397 2.205 2.018-0.1 2.048 1.69 1.376 0.15-1.895 0.31-0.428 2.26 2.018-0.22 2.293 1.93 1.345 0.09-1.957 0.28-0.275 2.32 1.957v2.171l2.2 1.651 0.13-1.529 0.27-0.458 2.17 1.865-0.06 2.11 1.99 1.682 0.09-1.774 0.37-0.397 2.29 1.895v2.233l2.17 1.498 0.03-1.743 0.31-0.459 2.23 1.988-0.92 4.648-1.8-1.223 0.03-0.887-2.11-1.376 0.03 4.801-1.07-0.062-1.81-1.314 0.34-5.657-2.08-1.437 0.06 4.984-1.04 0.03-0.76-3.21-0.83 0.305-0.49-1.131 0.46-3.272-2.26-1.467-0.09 1.956-3-2.048 0.55-2.08-1.71-1.161-0.34 1.681-2.72-2.232 0.43-1.62-1.71-1.254-0.03 2.324-2.847-2.446 0.337-1.682-1.835-1.254-0.214 1.682-2.599-1.927 0.061-1.956-1.345-0.979-0.306 1.774-1.101 0.581-0.734 1.253-0.703-0.306 0.398-5.442-1.071-0.581 0.031 5.351-1.009-0.153-1.896-1.376 0.275-6.024-0.948-0.55v5.473l-0.978-0.061-1.891-1.384z"/>
    <path id="path2595" fill="url(#linearGradient2597)" d="m126.62 72.807l-23.79-18.101-20.118-15.35-0.581 0.214-1.039 1.773 0.948 0.979 17.123 12.75 24.277 18.653 0.43-0.428 0.73 0.122 0.06 0.978 1.04 0.581 0.31 0.52 0.8-0.183-0.19-2.508z"/>
    <path id="path2605" fill="url(#linearGradient2607)" d="m82.688 43.438l-1.188 0.468-0.406 1.625 9.656 7.563 0.469-0.563 0.781 0.844 0.844-0.063 0.375 1.032h0.906l0.625 0.781 0.781-0.156 0.407 1.25 1.124-0.594 0.282 1.656 0.844-0.437 0.562 1.437 0.812-0.031 0.344 1.062 0.814-0.031 0.5 1.219 0.75 0.094 0.59 1.344 0.82-0.5 0.53 1.031 0.9 0.031 0.5 1.125 0.75-0.094 0.47 1.188 0.78-0.031 0.5 1.093 0.91 0.063 0.47 1.031 0.75-0.187 0.59 1.25 0.78-0.094 0.41 1.125 1.03-0.188 0.34 1.157 6.66 5.031 0.59 0.093 0.19 0.626 0.25 0.218 0.91-0.312 0.15-0.594 0.22-0.25 0.72-0.562-19.34-14.876-20.752-15.874zm42.872 32.843l-0.84 0.157v1.187l1.4 0.906-0.21 0.938 0.87-0.125-0.22-2.313-1-0.75z"/>
    <path id="path2620" fill="url(#linearGradient2622)" d="m126.03 78.375l-0.94-0.656-21.71 9.062-20.224 8.344-0.25 1.5 0.438 0.719 1.031 0.125 23.185-10.031 18.32-7.844 0.15-1.219z"/>
    <path id="path2624" fill="url(#linearGradient2626)" d="m82.812 91.75l41.808-17.531 0.88 0.593 0.28 0.407-0.4 1.031-26.911 11.5-14.625 6.281-0.782 0.031-0.5-0.5 0.25-1.812z"/>
    <path id="path2634" fill="url(#linearGradient2658)" d="m123.91 73.281l-2.07 1.688 0.07 7.281 0.78 0.5 2.22-1-0.22-8.25-0.78-0.219zm-3.5 1.75l-0.88 0.031-1.97 1.532 0.19 7.344 0.66 0.343 2.37-0.969-0.37-8.281zm-4.79 1.438l-2.21 1.687 0.15 7.469 0.75 0.344 2.31-1.063-0.28-8.218-0.72-0.219zm-4.53 2.031l-2.28 1.688 0.19 7.374 0.69 0.438 2.34-1-0.34-8.219-0.6-0.281zm-4.9 1.969l-2.22 1.593 0.19 7.5 0.75 0.282 2.28-0.875-0.25-8.344-0.75-0.156zm-4.81 2l-2.13 1.625 0.094 7.468 0.656 0.282 2.41-0.938-0.22-8.25-0.81-0.187zm-4.942 2.156l-2.126 1.687 0.126 7.376 0.781 0.374 2.281-0.968-0.281-8.25-0.781-0.219zm-5.032 1.906l-2.187 1.719 0.187 7.344 0.719 0.344 2.281-0.813-0.25-8.375-0.75-0.219zm-4.687 1.75l-2.094 1.625 0.187 7.313 0.688 0.469 2.219-0.907-0.188-8.312-0.812-0.188z"/>
    <path id="path2660" fill="url(#linearGradient2662)" d="m5.9375 60.062l-0.5 0.063-0.375-0.281v-4.032l2.1563-1.562 0.7187 0.156v2.344l2-0.875 0.0313-2.156 2.2192-1.781 0.687 0.281 0.156 2.5 1.75-0.907-0.031-2.124 2.156-1.719 0.75 0.25 0.063 2.25 1.843-0.75 0.094-1.844 2.063-1.75 0.75 0.156 0.125 2.063 1.562-0.656v-1.907l2.156-1.719 0.75 0.219 0.063 2.031 1.281-0.562-0.062-1.625 2.187-1.687 0.657 0.187 0.124 1.937 1.25-0.5-0.062-1.562 2.156-1.625 0.688 0.219 0.375 8.25-2.25 0.906-0.781-0.375-0.126-4.531-1.25 0.531 0.157 3.719-0.813-0.032-0.875-1.218-1.312 1.031-0.031-2.187-1.376 0.5 0.188 1.562-2.312 1.281-0.626-0.281-0.062-1.125-1.719 0.813 0.063 1.437-2.875 1.25-0.031-1.469-1.969 0.782 0.062 1.593-2.875 0.969-0.094-1.25-1.874 0.719 0.093 1.5-2.875 1.25-0.094-1.375-2.062 0.875 0.1875 1.343-2.25 0.5z"/>
    <path id="path2670" fill="url(#linearGradient2672)" d="m3.2188 57.5l18.75-7.844 13.625-5.75 0.875 0.688-0.219 1.187-31.469 13.938-1.3435 0.312-0.5-0.625 0.2813-1.906z"/>
    <path id="path2680" fill="url(#linearGradient2682)" d="m5.5312 60.062l30.5-12.843 0.75 0.937-0.219 1.032-5.843 2.5-0.875-1.313-0.656 0.719-1.626 0.687-0.374-0.25-1.157 1-3.906 1.813-0.531-0.406-0.688 1.124-0.781-0.312-0.594 0.812-0.812-0.187-0.469 0.969-0.81 0.097-0.521 0.588-0.776-0.187-0.549 0.689-0.875-0.875-0.375 0.875c-0.292 0.127-0.755 0.218-1.077 0.551-0.21 0.219-0.27 0.701-0.494 0.807-0.326 0.154-0.708-0.334-0.997-0.146-0.196 0.128-0.084 0.529-0.292 0.633-0.216 0.108-0.679-0.22-0.886-0.108-0.216 0.117-0.395 0.538-0.5996 0.635-0.3415 0.163-0.4891-0.233-0.8143-0.06-0.242 0.128-0.2952 0.718-0.5347 0.829l-0.9176-0.263-0.0874 1.434-0.4256 0.219-1.6876-2z"/>
    <path id="path2686" fill="url(#linearGradient2688)" d="m2.9688 61.094l1.375-0.875 7.5002 5.593 21.437 16.313 28.063 21.285 0.156 2.34-1.125 0.22-24.281-18.376-25.188-19.032-8.0622-6.156 0.125-1.312z"/>
    <path id="path2690" fill="url(#linearGradient2692)" d="m2.6875 65.188l1.375-0.876 7.4995 5.594 21.438 16.313 28.062 21.281 0.157 2.34-1.125 0.22-24.282-18.372-25.187-19.032-8.0625-6.156 0.125-1.312z"/>
    <path id="path2753" fill-opacity=".15686" d="m2.6875 65.188l1.375-0.876 7.4995 5.594 21.438 16.313 28.062 21.281 0.157 2.34-1.125 0.22-24.282-18.372-25.187-19.032-8.0625-6.156 0.125-1.312z"/>
    <path id="path2751" fill-opacity=".15686" d="m2.9688 61.094l1.375-0.875 7.5002 5.593 21.437 16.313 28.063 21.285 0.156 2.34-1.125 0.22-24.281-18.376-25.188-19.032-8.0622-6.156 0.125-1.312z"/>
    <path id="path2696" fill="url(#linearGradient2749)" d="m4.7812 59.594l-0.2812 0.437-0.2188 9.594 1.8438 1.375 1.0312 0.156-0.0312-9.468-2.3438-2.094zm3.375 2.594l-0.1874 0.218-0.2188 9.656 1.875 1.5 1-0.031-0.031-9.469-2.1565-1.843-0.2813-0.031zm3.4058 2.531l-0.187 0.219-0.219 9.656 1.875 1.5 1.031 0.156-0.062-9.656-2.156-1.844-0.282-0.031zm4.219 3.156l-0.187 0.219-0.219 9.656 1.875 1.5 1-0.031-0.031-9.469-2.157-1.844-0.281-0.031zm4.281 3.25l-0.187 0.219-0.219 9.656 1.875 1.5 1-0.031-0.031-9.469-2.156-1.844-0.282-0.031zm4.313 3.094l-0.187 0.219-0.219 9.656 1.875 1.5 1 0.25-0.032-9.75-2.156-1.844-0.281-0.031zm4.375 3.437l-0.188 0.219-0.218 9.656 1.875 1.5 1-0.031-0.031-9.469-2.157-1.843-0.281-0.032zm4.875 3.719l-0.187 0.219-0.219 9.656 1.875 1.5 1-0.031-0.032-9.469-2.156-1.844-0.281-0.031zm4.531 3.531l-0.187 0.219-0.219 9.656 1.875 1.5 1-0.031-0.031-9.469-2.156-1.843-0.282-0.032zm4.875 3.5l-0.187 0.219-0.219 9.656 1.875 1.5 1-0.031-0.031-9.469-2.157-1.843-0.281-0.032zm4.188 3.375l-0.188 0.219-0.219 9.66 1.876 1.5 1-0.04-0.032-9.464-2.156-1.844-0.281-0.031zm4.656 3.438l-0.187 0.219-0.219 9.652 1.875 1.5 1-0.03-0.032-9.466-2.156-1.844-0.281-0.031zm4.281 2.906l-0.187 0.219-0.219 9.656 1.875 1.5 1-0.03-0.031-9.47-2.156-1.844-0.282-0.031z"/>
    <path id="path3332" fill-opacity=".15686" d="m4.7812 59.594l-0.2812 0.437-0.2188 9.594 1.8438 1.375 1.0312 0.156-0.0312-9.468-2.3438-2.094zm3.375 2.594l-0.1874 0.218-0.2188 9.656 1.875 1.5 1-0.031-0.031-9.469-2.1565-1.843-0.2813-0.031zm3.4058 2.531l-0.187 0.219-0.219 9.656 1.875 1.5 1.157 0.062-0.188-9.562-2.156-1.844-0.282-0.031zm4.219 3.156l-0.187 0.219-0.219 9.656 1.875 1.5 1-0.031-0.031-9.469-2.157-1.844-0.281-0.031zm4.281 3.25l-0.187 0.219-0.219 9.656 1.875 1.5 1-0.031-0.031-9.469-2.156-1.844-0.282-0.031zm4.313 3.094l-0.187 0.219-0.219 9.656 1.875 1.5 0.968 0.094v-9.594l-2.156-1.844-0.281-0.031zm4.375 3.437l-0.188 0.219-0.218 9.656 1.875 1.5 1-0.031-0.031-9.469-2.157-1.843-0.281-0.032zm4.875 3.719l-0.187 0.219-0.219 9.656 1.875 1.5 1-0.031-0.032-9.469-2.156-1.844-0.281-0.031zm4.531 3.531l-0.187 0.219-0.219 9.656 1.875 1.5 1-0.031-0.031-9.469-2.156-1.843-0.282-0.032zm4.875 3.5l-0.187 0.219-0.219 9.656 1.875 1.5 1-0.031-0.031-9.469-2.157-1.843-0.281-0.032zm4.188 3.375l-0.188 0.219-0.219 9.66 1.876 1.5 1-0.04-0.032-9.464-2.156-1.844-0.281-0.031zm4.656 3.438l-0.187 0.219-0.219 9.652 1.875 1.5 1-0.03-0.032-9.466-2.156-1.844-0.281-0.031zm4.281 2.906l-0.187 0.219-0.219 9.656 1.875 1.5 1-0.03-0.031-9.47-2.156-1.844-0.282-0.031z"/>
    <path id="path3334" fill-opacity=".15686" d="m126.62 72.807l-23.79-18.101-20.118-15.35-0.581 0.214-1.039 1.773 0.948 0.979 17.123 12.75 24.277 18.653 0.43-0.428 0.73 0.122 0.06 0.978 1.04 0.581 0.31 0.52 0.8-0.183-0.19-2.508z"/>
    <path id="path3336" fill-opacity=".15686" d="m82.688 43.438l-1.188 0.468-0.406 1.625 9.656 7.563 0.469-0.563 0.781 0.844 0.844-0.063 0.375 1.032h0.906l0.625 0.781 0.781-0.156 0.407 1.25 1.124-0.594 0.282 1.656 0.844-0.437 0.562 1.437 0.812-0.031 0.344 1.062 0.814-0.031 0.5 1.219 0.75 0.094 0.59 1.344 0.82-0.5 0.53 1.031 0.9 0.031 0.5 1.125 0.75-0.094 0.47 1.188 0.78-0.031 0.5 1.093 0.91 0.063 0.47 1.031 0.75-0.187 0.59 1.25 0.78-0.094 0.41 1.125 1.03-0.188 0.34 1.157 6.66 5.031 0.59 0.093 0.19 0.626 0.25 0.218 0.91-0.312 0.15-0.594 0.22-0.25 0.72-0.562-19.34-14.876-20.752-15.874zm42.872 32.843l-0.84 0.157v1.187l1.4 0.906-0.21 0.938 0.87-0.125-0.22-2.313-1-0.75z"/>
    <path id="path3353" fill="url(#linearGradient3355)" d="m67.688 61.75l1.562 0.312 0.375 1.407 0.969-1.031 0.5 2.218 0.875-0.344 0.656 1.407 0.813-0.25 0.799 1.415 0.638-0.384 0.719 1.531 0.718-0.469 0.75 1.219 0.719-1.093 0.813 2.062 0.094 0.031 0.5-0.219 0.874 1.282 0.563-0.344 0.719 1.406 0.781-0.406 0.656 1.469 0.719-0.375 0.969 1.437 0.75-0.437 0.625 1.656 0.844-0.312 0.656 2.156 0.656-1.156 0.688 1.031 0.593-0.657 0.688 1.782 0.687-0.313 0.688 1.219 0.125 3.375-0.188 2-0.562 1.531-9.281-7.281-7.188-5.437-6.469-4.5-0.5-2.469 0.281-3.375 0.126-1.094z"/>
    <path id="path3357" fill="url(#linearGradient3359)" d="m91.312 78.938l0.719-2.594 0.875 1.781 0.625-1.187 0.625 0.593 0.625-1.219 0.719 0.876 0.5-0.5 0.781 0.593s0.531-2.031 0.657-1.969c0.124 0.063 0.656 1.063 0.656 1.063l0.687-1.187 0.657 0.156 0.622-0.969 0.75 0.563 0.57-0.844 0.74 0.594 0.57-0.907 0.59-0.093 0.66-1.126 0.87 1 0.5-0.874 0.72-0.032 0.56-1.094 0.82 0.907 0.59-0.625 0.72 0.156 0.62-1 0.75 0.344 0.41-1.313 0.97 0.844 0.47-0.969 1.18 0.282 0.22 1.343 0.28 1.25 0.26 0.938-0.07 2.031-1.19 0.781-2.84 1.219-3.22 1.094-4.62 1.625-1.94 1.093-4.188 2.5-3.25 1.407-1.843 0.5 0.625-1.625 0.218-2-0.25-2.063v-1.343z"/>
    <path id="path3801" fill="url(#linearGradient3803)" d="m54.052 84.889l-0.271 8.34 6.12 5.416 0.271-0.27-0.163-7.529-5.957-5.957z"/>
    <path id="path3805" fill="url(#linearGradient3807)" d="m60.117 90.792l8.395-3.899 0.379 7.69-8.665 3.9-0.163-7.474 0.054-0.217z"/>
    <path id="path3809" fill="url(#linearGradient3811)" d="m54.322 84.835l6.987-2.871 1.625-0.054 5.741 4.82-8.503 4.116-6.066-5.741 0.216-0.27z"/>
    <path id="path3813" fill="url(#linearGradient3815)" d="m56.164 85.105l5.903-2.329v5.525l-1.95 0.65-3.953-3.846z"/>
    <path id="path3817" fill="url(#linearGradient3819)" d="m62.176 82.939l-0.055 5.362 4.225-1.679-4.17-3.683z"/>
    <path id="path3821" fill="url(#linearGradient3823)" d="m60.009 63.171l21.231 22.638-0.596 0.813-0.758-0.217-20.635-20.851-0.108-0.975 0.866-1.408z"/>
    <path id="path3825" fill="url(#linearGradient3827)" d="m67.916 75.086l1.03 1.787 0.541 0.163 2.058-2.167 0.813-0.866 0.162 0.595-1.841 3.954 1.408 11.157-0.433 0.379h-2.167l0.163-10.29-1.354-2.275-0.488-1.516 0.108-0.921z"/>
    <path id="path3829" fill="url(#linearGradient3831)" d="m58.709 78.227l1.084 0.596 1.354 0.054 1.408-0.271 1.787-1.245-0.433 3.899s-1.408 0.596-1.625 0.596-2.221-0.217-2.221-0.217-1.245 0.054-1.3-0.162c-0.054-0.217-0.379-3.033-0.379-3.033l0.325-0.217z"/>
    <path id="path3833" fill="url(#linearGradient3835)" d="m58.818 78.281l0.704-0.812 1.516-0.433 2.925 0.216-0.488 0.813-1.408 0.65-1.625 0.108-1.624-0.542z"/>
    <path id="path3837" fill-opacity=".15686" d="m54.052 84.889l-0.271 8.34 6.12 5.416 0.271-0.27-0.163-7.529-5.957-5.957z"/>
    <path id="path3839" fill-opacity=".15686" d="m62.176 82.939l-0.055 5.362 4.225-1.679-4.17-3.683z"/>
    <path id="path3841" fill-opacity=".15686" d="m56.164 85.105l5.903-2.329v5.525l-1.95 0.65-3.953-3.846z"/>
    <path id="path3863" fill="url(#linearGradient3865)" d="m52.497 45.924l0.044 14.66 17.6-8.433 10.637-4.886 0.173-3.373-0.086-4.757-0.951-5.016s-27.244 11.373-27.417 11.805z"/>
    <path id="path3843" fill="url(#linearGradient3857)" d="m67.438 14.469l-10.907 3.812-11.906 4.157-0.063 0.062c2.011 1.889 2.605 3.542 3.907 5.312 2.397 5.155 3.387 10.402 4.281 15.657l0.406 2.656 0.125 0.031 0.344-0.125 0.375-0.469 0.5-0.718 0.75 0.25 0.75 0.187 1.094-1.281 0.75 0.281 0.468 0.219 0.407-0.188 0.531-0.781 0.531-0.281 0.969 0.188 0.625-0.719 0.937-0.657 0.313 0.469 0.406 0.281 0.719-0.562 0.781-0.656 0.688 0.281 0.437-0.031 0.532-0.563 0.593-0.531 1.125 0.094 1.094-0.969h0.594l0.5 0.063 0.437-0.438 0.75-0.906 0.375 0.094 0.688 0.156 1.156-1.25 1.938-0.156 0.656-0.688 0.656-1.031 0.656-0.344 0.906-0.219 0.719-0.312 0.594 0.062 1.406-0.218 0.657-1.688 0.968-0.438 0.688-0.374 0.281-1.032 0.375-0.531 1.188-0.531-3.719-3.875-8.344-7.344-3.594-2.719-2.093-1.687z"/>
    <path id="path3859" fill="url(#linearGradient3861)" d="m36.875 37.469l-0.375 5.843 0.312 5 0.032 2.657 2.781 2.187 4.313 2.719 8.5 4.656 0.031-14.812-15.594-8.25z"/>
    <path id="path3867" fill="url(#linearGradient3869)" d="m39.005 41.124l-0.389 7.135-0.519-0.345v2.118l8.26 4.584 0.562-1.902-0.649-0.519 0.562-7.006-7.827-4.065z"/>
    <path id="path3871" fill="#d59163" d="m39.906 42.344v2.875l2.375 1.125 0.125-0.156 0.282-2.438-2.782-1.406zm3.906 2.156l-0.187 2.156 0.281 0.532 1.75 0.687 0.125-2.563-1.969-0.812zm-4.156 1.906l-0.125 2.406 2.594 1.25s0.094-1.889 0.094-2.062-0.188-0.531-0.188-0.531l-2.375-1.063zm3.938 1.969l-0.219 2.437 2.156 1.157-0.031-2.75-1.906-0.844z"/>
    <path id="path3880" fill-opacity=".15686" d="m36.875 37.469l-0.375 5.843 0.312 5 0.032 2.657 2.781 2.187 4.313 2.719 8.5 4.656 0.031-14.812-15.594-8.25z"/>
    <path id="path3845" fill="url(#linearGradient3855)" d="m44.716 22.462l-3.435 2.632-4.062 4.344-3.688 4.156 0.094 1.062 0.219 0.438 0.656-0.032 0.594 0.219 0.406 1.407 0.562 0.25 0.844 0.406 0.25 1.156 0.406 0.312h0.782l0.25 0.188 0.344 0.812 0.5 0.563 1.437 0.437 0.563 0.938 1.531 0.344 0.219 0.281 0.062 0.563 0.688 0.093 1.187 0.188 0.344 0.875 0.343 0.187 0.907 0.125 0.562 0.156 0.563 0.844 1 0.156 1.125 0.126 0.625 0.75 0.5 0.062 1.187-0.5 0.952 0.125-0.483-2.656c-0.894-5.255-1.884-10.502-4.281-15.657-1.302-1.77-1.742-3.461-3.753-5.35z"/>
    <path id="path3884" fill="url(#linearGradient3886)" d="m69.959 52.074l-0.265-10.65 5.48-2.166 0.354 10.43-5.569 2.386z"/>
    <path id="path3888" fill="url(#linearGradient3890)" d="m68.766 52.826l1.591 0.972 8.353-3.757-1.37-1.325-8.574 4.11z"/>
    <path id="path3892" fill="url(#linearGradient3894)" d="m70.446 53.886l8.396-3.889 0.133 1.812-8.176 3.624-0.353-1.547z"/>
    <path id="path3896" d="m60.679 48.671l-1.481 0.045-1.326 0.751-1.016 1.105-1.348 1.812-0.553 2.077 0.487 3.535 0.729 1.127 1.392 0.818 0.685 0.155 0.795 0.132 1.149-0.287s-0.662-0.044-0.972-0.066c-0.309-0.022-1.79-0.575-1.79-0.575l-1.215-1.547-0.464-2.099 0.243-2.342 0.619-1.459 0.685-1.06 0.994-1.017 0.928-0.53 1.459-0.575z" fill="url(#linearGradient3898)"/>
    <path id="path3900" fill="url(#linearGradient3902)" d="m59.684 49.666l0.619-0.243 0.773 0.066 0.884 0.221 0.95 0.663 0.818 1.679 0.044 1.083-0.022 0.928-0.221 1.282-0.817 1.657 0.353-1.237 0.177-1.415-0.022-1.458-0.531-1.525-1.016-1.105-0.994-0.441-0.995-0.155z"/>
    <path id="path3907" fill="url(#linearGradient3909)" d="m60.413 53.025l-1.303 0.044c-0.525 0.163-0.577 0.529-0.707 0.862l-0.133 0.574 0.331 0.994 0.619 0.376 0.597-0.11-0.376-0.31-0.243-0.574 0.088-1.017 0.31-0.442 0.42-0.309 0.397-0.088z"/>
    <path id="path3911" fill-opacity=".15686" d="m60.679 48.671l-1.481 0.045-1.326 0.751-1.016 1.105-1.348 1.812-0.553 2.077 0.487 3.535 0.729 1.127 1.392 0.818 0.685 0.155 0.795 0.132 1.149-0.287s-0.662-0.044-0.972-0.066c-0.309-0.022-1.79-0.575-1.79-0.575l-1.215-1.547-0.464-2.099 0.243-2.342 0.619-1.459 0.685-1.06 0.994-1.017 0.928-0.53 1.459-0.575z"/>
    <path id="path3913" fill-opacity=".15686" d="m59.684 49.666l0.619-0.243 0.773 0.066 0.884 0.221 0.95 0.663 0.818 1.679 0.044 1.083-0.022 0.928-0.221 1.282-0.817 1.657 0.353-1.237 0.177-1.415-0.022-1.458-0.531-1.525-1.016-1.105-0.994-0.441-0.995-0.155z"/>
    <path id="path3915" fill-opacity=".15686" d="m60.413 53.025l-1.37 0.088c-0.346 0.139-0.528 0.444-0.64 0.818l-0.133 0.574 0.331 0.994 0.619 0.376 0.597-0.11-0.376-0.31-0.243-0.574 0.088-1.017 0.31-0.442 0.42-0.309 0.397-0.088z"/>
    <path id="path3917" fill="url(#linearGradient3922)" d="m60.906 48.781l-1.344 0.25-1 0.531-1.25 1.063-1 1.813-0.374 1.468-0.219 1.469 0.437 2.219 0.813 1.25 1 0.844 1.593 0.218 1.5-0.531 1.876-1.563 1-2.156 0.374-1.781-0.062-1.875-0.812-1.969-1-0.937-1.532-0.313zm0.094 0.688l1 0.25 1.188 1.219 0.281 0.687 0.312 1.531-0.093 1.313-0.282 1-0.312 0.843-0.313 0.657-1.25 1.375-1.406 0.75-0.844 0.031-0.843-0.25-0.907-0.563-0.687-1.187-0.375-1.406 0.093-1.5 0.376-1.688 0.843-1.375 1-1 1.438-0.656 0.781-0.031z"/>
    <path id="path3924" fill="url(#linearGradient3926)" d="m58.845 50.24l0.331 2.895 0.088 0.199 0.31-0.066 0.154-0.221-0.088-3.337-0.773 0.42-0.022 0.11z"/>
    <path id="path3928" fill="url(#linearGradient3930)" d="m60.369 53.025l1.635-2.763 0.487 0.155s0.397 0.354 0.265 0.508c-0.133 0.155-1.79 2.321-1.79 2.321l-0.597-0.221z"/>
    <path id="path3932" fill="url(#linearGradient3934)" d="m61.165 53.798l2.298-0.508 0.177 0.375-0.177 0.619-2.276-0.022-0.022-0.464z"/>
    <path id="path3936" fill="url(#linearGradient3938)" d="m60.988 54.991l1.856 1.569-0.331 0.685-1.79-1.9 0.265-0.354z"/>
    <path id="path3940" fill="url(#linearGradient3942)" d="m59.662 59.079l-0.022-3.425s0.619-0.088 0.619 0.022c0 0.111 0.265 3.293 0.265 3.293l-0.862 0.11z"/>
    <path id="path3944" fill="url(#linearGradient3946)" d="m57.209 57.687l1.68-2.342 0.265 0.066 0.155 0.221-1.614 2.74-0.486-0.685z"/>
    <path id="path3948" fill="url(#linearGradient3950)" d="m56.502 54.704l2.188-0.155 0.132 0.265-0.066 0.244-2.298 0.574-0.022-0.685 0.177-0.287-0.111 0.044z"/>
    <path id="path3952" fill="url(#linearGradient3954)" d="m57.298 51.876l1.878 1.745-0.066 0.31-0.243 0.309-1.901-1.525 0.155-0.464 0.177-0.375z"/>
    <path id="path3956" fill="url(#linearGradient3958)" d="m59.286 53.864l-0.088 0.973 0.243 0.662 0.597 0.133s0.442-0.088 0.508-0.177c0.066-0.088 0.552-0.729 0.552-0.729l0.067-1.039c-0.087-0.354-0.365-0.519-0.685-0.64l-0.376 0.066-0.442 0.287-0.376 0.464z"/>
    <path id="path3960" fill-opacity=".15686" d="m59.795 54.328l0.221-0.486 0.641-0.022 0.088 0.486-0.066 0.464-0.332 0.376-0.331-0.044-0.265-0.464 0.044-0.31z"/>
    <path id="path3962" d="m51.575 17.691l-0.045 2.254 2.917-0.972-2.872-1.282z" fill="url(#linearGradient3964)"/>
    <path id="path3966" fill="url(#linearGradient3968)" d="m51 14.023l5.745 2.961-0.132 1.238s-2.033 0.795-2.21 0.751-3.447-1.591-3.447-1.591l0.044-3.359z"/>
    <path id="path3970" fill="url(#linearGradient3972)" d="m56.569 16.631l6.319-1.989 0.177 0.088v1.238l-6.452 2.209-0.044-1.546z"/>
    <path id="path3974" fill="url(#linearGradient3976)" d="m56.569 16.807s-5.878-2.695-5.348-2.872 5.436-2.652 6.01-2.387c0.575 0.266 5.436 3.094 5.436 3.094l-6.098 2.165z"/>
    <path id="path3978" fill="url(#linearGradient3980)" d="m54.491 14.067l2.387-1.237s3.359 1.768 2.74 1.724c-0.619-0.045-3.005 1.104-3.005 1.104l-2.122-1.591z"/>
    <path id="path3982" fill-opacity=".15686" d="m51.575 17.691l-0.045 2.254 2.917-0.972-2.872-1.282z"/>
    <path id="path3984" fill-opacity=".15686" d="m51 14.023l5.745 2.961-0.132 1.238s-2.033 0.795-2.21 0.751-3.447-1.591-3.447-1.591l0.044-3.359z"/>
    <path id="path3986" fill-opacity=".15686" d="m54.491 14.067l2.387-1.237s3.359 1.768 2.74 1.724c-0.619-0.045-3.005 1.104-3.005 1.104l-2.122-1.591z"/>
    <path id="path4121" fill="url(#linearGradient4123)" d="m68.8 53.059c0.346 0.26 1.643 0.606 1.643 0.606l0.087 1.643-1.73-0.865 0.216-1.297"/>
  </g>
  <g id="layer1">
    <path id="path2801" fill-rule="evenodd" d="m57.219 11.438l-6.469 2.562v3.531l0.656 0.281 0.063 2.032-6.563 2.312c-4.704 2.909-7.967 7.403-11.562 11.532 0.218 0.409 0.014 1.057 0.25 1.437s1.122-0.07 1.375 0.281c0.253 0.352 0.293 1.237 0.562 1.563s0.997 0.197 1.281 0.5h-0.093c-0.389 2.235-0.421 4.514-0.344 6.812l-0.656-0.719-0.25 0.094-0.031-0.718-0.813-0.157-2.25 1.75 0.031 0.438-1.062 0.469-0.063-0.907-0.812-0.187-2.25 1.75 0.031 0.656-1.062 0.469-0.063-1.031-0.844-0.188-2.25 1.75 0.031 0.781-1.468 0.625-0.063-0.968-0.812-0.157-2.25 1.75 0.031 0.688-1.75 0.75-0.062-1.125-0.813-0.188-2.25 1.75 0.031 0.906-1.656 0.688-0.062-1.125-0.844-0.187-2.2502 1.75 0.0312 0.906-1.8438 0.781-0.0624-1.063-0.8126-0.187-2.25 1.75 0.0313 0.813-1.9687 0.843-0.125 1.938 0.5624 0.719 0.9688-0.126v0.094l-0.9062 0.313c-1.0055 0.423-0.9646 1.218-0.7188 2.281l1.0312 0.781 0.4688 0.375v0.25l-0.9688 0.344c-1.0054 0.423-0.9645 1.218-0.7187 2.281l1.5937 1.188-0.0624 1.781 1.9062 1.438 1.25 0.093v-0.969l0.375 0.313-0.0312 1.625 1.9062 1.438 1.25 0.093v-0.812l0.375 0.281-0.031 1.625 1.906 1.437 1.25 0.094v-0.812l1 0.781-0.031 1.625 1.906 1.438 1.25 0.093v-0.812l1.25 0.969-0.031 1.562 1.906 1.438 1.25 0.093v-0.75l1.125 0.875-0.031 1.469 1.906 1.437 1.25 0.094v-0.687l1.25 0.969-0.031 1.562 1.906 1.438 1.25 0.093v-0.75l1.75 1.344-0.031 1.625 1.906 1.438 1.25 0.093v-0.812l1.5 1.156-0.031 1.625 1.906 1.438 1.25 0.093v-0.812l1.594 1.219 0.031-0.657-1.625-1.25v-1.562l1.687 1.312-0.093 3.719 1.906 1.438 1.25 0.092v-0.718l1.031 0.748-0.062 1.69 1.906 1.44 1.25 0.09v-0.87l1.531 1.12-0.062 1.72 1.906 1.44 1.25 0.09v-0.87l1.125 0.84-0.031 1.37 1.906 1.44 1.25 0.1v-0.54l1.5 1.13 1.344-0.34-0.188-2.53-2.656-2.04v-0.43l1.687 1.31 1.344-0.34-0.187-2.54-2.875-2.18v-1.254l-2.5-2.094-0.344 0.438-0.031 0.75-1.375-1.062v-0.907l-2.5-2.093-0.344 0.437v0.375l-1.781-1.344v-0.875l-2.5-2.093-0.344 0.437v0.406l-1.281-0.969v-1.031l-2.5-2.093-0.344 0.437v0.531l-1.906-1.468v-0.907l-2.5-2.093-0.344 0.437v0.406l-1.094-0.843 18.594-9.188c0.084-0.422 0.122-0.844 0.156-1.25 0.003-0.033 0.029-0.061 0.032-0.094 0.458-2.296 0.257-3.567-0.25-4.875-0.065-0.666-0.11-1.344-0.126-2.031l-0.937-0.188-0.75-1.218-0.687-0.125-0.844-0.907-0.782-0.124-0.781-1.032-0.781 0.032-1-0.876-0.625-0.156-0.594-1.468-0.969 0.468-0.812-0.687-0.812-0.344-0.782-0.781-0.781-0.25-0.781-1.375-0.844 0.375-0.594-1.094-0.968 0.062-0.782-0.874-0.844-0.157-0.812-0.906-0.75-0.094-0.812-1.031h-0.813l-0.813-1h-0.75l-0.843-1.188-0.781 0.157-0.594-0.907 0.968-0.437 0.032 0.969 0.781 0.344 2.469-1-0.094-1.719 0.812-0.375c0.017 0.575 0.065 1.146 0.063 1.718 4.885 3.746 10.389 6.751 15.844 9.813l3.562-1.687c0.66 0.633 1.647 0.943 3.031 1.062 1.005-0.103 1.926-0.56 2.657-1.188 0.564-0.429 1.074-0.926 1.5-1.5 0.438-0.712 0.784-1.479 1-2.281l4.406-2.093v1.5l1.344 0.687 0.719 0.406 8.5-3.969-0.094-1.687-1.375-1.25 3.219-1.531c-0.013-0.485-0.01-0.964 0-1.438l1.593 1.219-0.062 1.75 1.906 1.437 1.25 0.094v-0.937l0.406 0.312-0.062 1.594 1.906 1.437 1.25 0.094v-0.781l0.406 0.313-0.062 1.343-0.438 0.531-0.781-0.312-0.75 0.906-0.781-0.344-0.813 1-0.718-0.437-0.719 1-0.813-0.437-0.75 0.656-0.812-0.344-0.719 0.562-0.906-0.781-0.594 1.563-0.813-0.469-0.718 1.125-0.813-0.031-0.625 0.531-0.906-0.656-0.719 1.625-0.812-0.844-0.594 0.969-0.937-0.469-0.782 0.844-0.687-0.313-0.719 1.469-0.812-0.687-0.532 0.781-0.844-0.531-1 1c-0.127 2.395-0.777 4.791 0 7.187 5.746 3.237 14.967 10.921 23.126 17.281 4.894-0.931 7.586-3.746 11.372-5.625 3.92-1.501 7.67-2.332 11.75-4.5 0.3-1.471 0.04-2.683-0.22-3.969l1.03 0.094v-0.656l1.54 1.156-0.07 1.469 1.91 1.437 0.66 0.063-1.19 0.906 0.03 0.594-1.09 0.437-0.03-0.937-0.85-0.187-2.25 1.75 0.03 0.687-1.5 0.594-0.03-0.844-0.81-0.156-2.25 1.75 0.03 0.531-1.78 0.75-0.03-0.969-0.82-0.187-2.24 1.75 0.03 0.656-1.69 0.719-0.03-0.907-0.85-0.187-2.246 1.75 0.031 0.625-1.875 0.781-0.031-0.781-0.813-0.188-2.25 1.75v0.5l-1.906 0.782-0.031-0.938-0.844-0.187-2.25 1.75 0.031 0.656-1.531 0.656-0.063-1.125-0.812-0.187-2.25 1.75 0.031 0.843-1.937 0.813-0.125 1.937 0.562 0.719 1.094-0.125 0.5-0.218v0.374l-1.656 0.688-0.157 1.938 0.594 0.687 1.063-0.094 0.25-0.093v0.093l0.781 0.344 2.469-1-0.031-0.844 1.406-0.593v0.343l0.781 0.344 2.469-1-0.063-1.063 1.813-0.781 0.031 0.594 0.781 0.344 2.469-1-0.063-1.313 1.75-0.718v0.5l0.778 0.343 2.47-1-0.06-1.219 1.59-0.687v0.531l0.79 0.344 2.46-1-0.06-1.25 1.63-0.719 0.03 0.75 0.78 0.344 2.47-1-0.07-1.469 1.35-0.594 0.03 0.688 0.78 0.344 2.47-1-0.06-1.406 0.97-0.407 0.03 0.813 0.78 0.344 2.47-1-0.06-1.532 0.93-0.406 0.03 1.031 0.78 0.344 2.47-1-0.09-1.75 0.97-0.406c0.01-0.029 0.02-0.036 0.03-0.063l0.88-0.218-0.19-2.532-1-0.781c0.07-0.162 0.14-0.305 0.19-0.406l1.18-0.313-0.18-2.531-2.91-2.219v-1.25l-2.5-2.094-0.35 0.438-0.03 0.688-1.87-1.438v-1.094l-2.5-2.094-0.34 0.438-0.04 0.562-1.75-1.343v-1.063l-2.5-2.094-0.34 0.438-0.03 0.531-2-1.531v-1.094l-2.5-2.094-0.34 0.438-0.04 0.531-1.5-1.125v-1.125l-2.5-2.093-0.34 0.437-0.03 0.563-1.38-1.063v-0.969l-2.496-2.094-0.344 0.438-0.031 0.438-1.5-1.157v-0.875l-2.5-2.094-0.344 0.438v0.375l-1.281-1v-0.844l-2.5-2.093-0.344 0.437v0.344l-0.656-0.5v-0.813l-2.5-2.094-0.344 0.438v0.281l-0.656-0.5v-0.625l-2.5-2.094-0.344 0.438v0.281l-0.906 0.313c-0.377 0.158-0.592 0.367-0.719 0.625-0.005-1.723-0.146-3.46-0.719-5.281 0.262-0.01 0.503-0.03 0.656-0.126 0.501-0.311 0.39-1.524 0.844-1.843s0.94-0.314 1.344-0.657c0.404-0.342 0.337-1.15 0.688-1.531 0.35-0.38 1.113-0.347 1.406-0.781-5.542-5.839-11.579-11.058-18.063-15.719l-4.062 1.438 0.062-0.969-6.062-3.312zm-0.094 0.437l4.844 2.656-5.375 2.063-4.875-2.594 5.406-2.125zm-0.25 0.844l-2.813 1.343 2.5 1.75 3.25-1.281-2.937-1.812zm-0.031 0.375l0.062 2.375-0.281 0.125-1.875-1.469 2.094-1.031zm0.281 0.062l2.187 1.313-2.156 0.906-0.031-2.219zm-5.875 1.094l5.219 2.812-0.063 1.032-1.937 0.687-3.281-1.437 0.062-3.094zm16.031 0.438c6.464 4.556 12.386 9.586 17.438 15.437-0.235 0.292-0.688 0.223-1 0.531-0.313 0.308-0.242 1.212-0.625 1.532-0.383 0.319-1.024 0.452-1.469 0.781-0.445 0.328-0.407 1.229-0.906 1.562-0.5 0.333-1.548 0.073-2.094 0.407-0.546 0.333-1.197 0.325-1.781 0.656-0.584 0.33-0.73 1.395-1.344 1.718-0.614 0.324-1.52-0.063-2.156 0.25-0.332 0.164-0.752 0.997-1.094 1.157s-0.679-0.376-1.031-0.219-0.826 1.128-1.188 1.281c-0.361 0.154-0.63-0.182-1-0.031s-0.841 0.852-1.219 1c-0.377 0.148-0.645-0.239-1.031-0.094-0.385 0.146-0.827 0.982-1.219 1.125-0.391 0.144-0.758-0.422-1.156-0.281s-0.971 1.048-1.375 1.188c-0.403 0.139-0.435-0.857-0.843-0.719-0.409 0.138-1.057 1.113-1.469 1.25-0.413 0.136-0.772-0.167-1.188-0.031-0.416 0.135-0.706 1.084-1.125 1.218-0.419 0.135-0.984-0.571-1.406-0.437s-0.67 1.023-1.094 1.156c-0.423 0.133-1.013-0.477-1.437-0.344-0.349 0.202-0.541 1.137-0.907 1.25-0.365 0.114-0.809-0.21-1.187-0.156s-0.958 0.54-1.344 0.563c-0.386 0.022-0.673-0.802-1.062-0.782-0.371-0.199-1.622-0.083-2-0.281s-0.274-0.74-0.657-0.937c-0.382-0.198-1.084-0.02-1.468-0.219-0.385-0.2-0.335-0.891-0.719-1.094s-1.243-0.042-1.625-0.25-0.029-0.629-0.406-0.844c-0.378-0.214-1.192-0.121-1.563-0.343-0.37-0.223-0.295-0.768-0.656-1-0.361-0.233-1.15-0.287-1.5-0.532-0.35-0.244-0.383-1.054-0.719-1.312-0.335-0.258-0.868 0.117-1.187-0.156-0.192-0.165-0.31-0.614-0.407-1 0.009-0.062 0.023-0.127 0.032-0.188h-0.063c-0.053-0.181-0.097-0.319-0.187-0.406-0.301-0.29-0.907-0.161-1.188-0.469-0.28-0.308-0.274-1.235-0.531-1.563-0.257-0.327-1.049 0.256-1.281-0.093-0.232-0.35 0.173-0.971-0.032-1.344 3.551-4.185 6.946-8.766 11.282-11.156l9.468-3.313 12.719-4.468zm-4.437 0.218v0.938l-6 2.094 0.031-0.969 5.969-2.063zm3 2l0.062 0.125c1.498 1.559 2.832 2.332 4.5 4.688l0.219-0.063c-1.483-2.136-3.187-3.17-4.781-4.75zm-14.156 1.032l2.374 1-2.343 0.812-0.031-1.812zm9.812 2.75l-0.188 0.031 2.438 5.812 0.031-0.125c-0.855-2.181-1.533-3.86-2.281-5.718zm-5.062 0.093l-0.157 0.063c2.174 3.91 4.359 7.818 5.844 11.844l0.156-0.032c-1.559-3.885-3.711-7.875-5.843-11.875zm11 1.75c2.26 3.445 4.769 6.278 6.781 10.344l0.125-0.125c-1.66-4.129-4.504-6.791-6.75-10.188l-0.156-0.031zm-17.876 0.188l-0.187 0.062c1.574 2.822 2.593 5.647 3.719 8.469l0.062-0.094c-1.098-2.786-2.053-5.54-3.594-8.437zm-3.906 0.75l-0.062 0.281c4.7 5.803 5.724 12.801 7.125 19.656h0.187c-1.392-6.813-2.35-13.888-7.25-19.937zm27.438 1.156l5.031 7.656 0.187-0.062-5.093-7.563-0.125-0.031zm-7.188 2.281l-0.187 0.032 3.312 8.531 0.125-0.063-3.25-8.5zm-20.375 0.125c-1.445 2.534-2.705 5.138-3.562 7.907l0.219-0.188c0.723-2.798 2.114-5.267 3.531-7.719h-0.188zm-4.093 0.531c-2.367 2.129-3.813 4.423-5.657 6.657l0.188 0.093c1.693-2.266 3.219-4.563 5.469-6.718v-0.032zm37 0.063l-0.157 0.063 3.157 3.406c0.05-0.021 0.095-0.061 0.156-0.094l-3.156-3.375zm3.156 3.375l0.031 0.031c0.683-0.462 0.293-0.205-0.031-0.031zm-12.656-0.719l3.437 5.5h0.219l-3.594-5.5h-0.062zm-14.719 0.313l-0.125 0.062c2.088 3.812 2.499 7.778 3.812 11.719l0.219-0.063c-1.298-3.907-1.957-7.811-3.906-11.718zm10.25 0.656c1.143 2.639 2.332 5.156 2.906 8.125l0.187-0.063c-0.623-2.682-1.804-5.38-2.874-8.062h-0.219zm-22.157 0.75c-1.348 1.668-2.804 3.165-3.937 5.156l0.156 0.094c0.943-2.153 2.492-3.554 3.875-5.156l-0.094-0.094zm5.376 0.094c0.19 3.25-0.575 6.323-0.907 9.468h0.188c0.282-3.116 0.951-6.048 0.812-9.374l-0.093-0.094zm11.718 1.031l-0.218 0.063c1.012 2.252 2.36 4.304 2.843 6.874l0.094-0.062c-0.229-2.384-1.758-4.596-2.719-6.875zm-14.375 0.437l-1.75 7.438 0.188 0.031 1.75-7.25-0.188-0.219zm34.188 1.376c0.255-0.021 0.532-0.005 0.812 0 0.769 4.079 0.952 7.893 0.563 12.093l-3.219 1.531-0.125-0.124-1.469 0.812-0.437-10.375-6.094 2.531 0.5 10.782-1.094 0.5h-0.031v0.031l-4.281 2.031c0.353-1.787 0.068-3.653-1.125-5.156-0.758-0.714-1.554-0.99-2.344-0.969-0.387-0.152-0.684-0.073-0.937-0.094-1.033 0.035-1.635 0.543-2.376 1.188-0.568 0.579-2.114 2.148-2.374 3.156-0.2 1.059-0.522 1.797-0.219 3.687 0.107 0.981 0.339 1.732 0.75 2.282l-2.938 1.375-0.156-14.094c0.337-0.015 0.53 0.146 0.906 0.031 0.423-0.129 0.591-0.992 1-1.156 0.4-0.116 1.039 0.497 1.438 0.375 0.398-0.122 0.821-1.091 1.219-1.219 0.397-0.127 0.79 0.571 1.187 0.438s0.917-1.112 1.313-1.25c0.395-0.139 0.73 0.268 1.124 0.125 0.395-0.143 0.951-1.134 1.344-1.281 0.394-0.148 0.545 0.839 0.938 0.687 0.392-0.152 1.046-1.001 1.437-1.156 0.392-0.156 0.516 0.377 0.907 0.219 0.39-0.159 0.954-0.87 1.343-1.032 0.39-0.162 0.612 0.227 1 0.063 0.388-0.165 0.832-0.802 1.219-0.969s0.708 0.138 1.094-0.031 0.834-1.08 1.218-1.25c0.385-0.171 0.711 0.422 1.094 0.25 0.384-0.172 0.743-1.077 1.125-1.25 0.65-0.431 1.539 0.034 2.157-0.344 0.617-0.378 0.73-1.378 1.312-1.719 0.582-0.34 1.144-0.244 1.688-0.562 0.135-0.08 0.323-0.14 0.531-0.156zm-42.188 3.156c0.039 0.277 0.058 0.566 0.219 0.718 0.298 0.282 1.001-0.075 1.312 0.188 0.312 0.263 0.239 1.128 0.563 1.375s1.352 0.299 1.687 0.531c0.336 0.233 0.248 0.842 0.594 1.063s1.27 0.069 1.625 0.281c0.356 0.212-0.145 0.607 0.219 0.812 0.364 0.206 1.347-0.013 1.719 0.188 0.371 0.201 0.153 0.802 0.531 1s1.241 0.083 1.625 0.281c0.384 0.199 0.267 0.705 0.656 0.907 0.389 0.201 1.701 0.231 2.094 0.437 0.439 0.052 0.625 0.771 1.063 0.75 0.357-0.017 0.893-0.262 1.312-0.406l-0.125 13.906c-5.165-2.94-10.445-5.29-15.156-9.156-0.006-0.668-0.044-1.422-0.063-2.125 0.201-0.433 0.247-0.582 0-0.875-0.098-3.356-0.236-6.881 0.125-9.875zm46.313 0.844l1.781 1.593-0.469-0.062-1.594-1.281 0.282-0.25zm-0.75 0.562l43.656 33.312-0.22 0.219-43.811-33.156 0.375-0.375zm-7.625 0.062l0.25 10.032-0.438 0.187-0.687-8.843-3.594 1.624 0.375 9.094-0.563 0.25-0.374-10.125 5.031-2.219zm-25.375 0.032c0.212 1.337 0.158 2.662-0.219 4l0.281 0.031c0.175-1.303 0.433-2.585 0.156-4l-0.218-0.031zm32.25 0.562l43.816 33.313-0.07 1.187-0.87-0.562-0.03-0.719-0.81-0.156-0.32 0.25-42.06-32.031 0.344-1.282zm-43.032 0.688l-0.437 7.031-0.437-0.25v2.563l8.187 4.437 0.594 0.313 0.469-2.219-0.782-0.563 0.625-7.094-8.219-4.218zm34.969 0.531l0.531 8.531 0.126 0.063-3.188 1.5-0.406-8.781 2.937-1.313zm-34.656 0.031l7.531 3.875-0.594 6.625-0.374-0.25 0.374-6.594-6.468-3.156-0.25 6.469-0.532-0.281 0.313-6.688zm47.719 0.032l1.781 1.593-0.469-0.062-1.594-1.281 0.282-0.25zm-5.75 0.281c0.011 0.054 0.018 0.1 0.031 0.156l1.531 1.156-0.031 0.25-0.969 0.344c-0.329 0.138-0.522 0.317-0.656 0.531 0.04-0.819 0.063-1.63 0.094-2.437zm-41 1l2.312 1.25-0.156 2.187-2.25-1.062 0.094-2.375zm-5.5 0.25l0.344 0.219-1.813 1.343-0.313-0.125 1.782-1.437zm0.718 0.219v0.562l-1.75 0.719 1.75-1.281zm47.657 0.093l1.469 1.125v0.156l-1.469-1.124v-0.157zm5.375 0l0.406 0.281v0.126l-0.406-0.313v-0.094zm-5.938 0.25l40.184 30.688-0.25 0.187-40.309-30.5 0.375-0.375zm7.938 0.531l1.781 1.594-0.469-0.062-1.594-1.282 0.282-0.25zm-47.594 0.094l0.906 0.469-0.187 2.094 0.343 0.562 1.563 0.719c-0.022 0.321-0.011 0.648-0.031 0.969l-1.594-0.781v-0.126l-0.531 0.25-0.094 2.032c-0.271-0.15-0.501-0.26-0.781-0.406l0.125-2-0.344-0.563-2.156-1.094 0.031-0.781 2.219 1.031 0.5-0.156 0.031-2.219zm38.906 0.032l15 11.406-0.687 0.5-0.375-1.219-0.844 0.125-0.656-0.812h-0.844l-0.5-1.094-0.688 0.218-0.906-0.874-0.218 0.343-9.626-7.312 0.344-1.281zm-46.312 0.031l0.312 0.312-31.5 13.563-0.281-0.563 31.469-13.312zm-4.906 0.312l0.343 0.219-1.812 1.344-0.313-0.125 1.782-1.438zm54.312 0.094l0.531 0.406v0.188l-0.531-0.407v-0.187zm5.25 0l1.531 1.156v0.031l-1.531-1.156v-0.031zm-53.719 0.094l-0.25 0.906-31.281 13.844-0.0312-0.031-0.0313 0.031-0.4063 0.187c-0.6088-0.329-0.6142-0.402-0.0624-1.062l32.062-13.875zm-5.125 0.062v0.719l-1.812 0.781v-0.187l1.812-1.313zm12.844 0.031l1.5 0.813c-0.001 0.674-0.049 1.348-0.094 2.031l-1.562-0.75 0.156-2.094zm41.594 0.469l0.531 0.407v0.156l-0.5-0.375-0.031-0.188zm-49.156 0.407c0.026 0.58 0.067 1.168 0.093 1.75l-0.469-0.5-0.406 0.187-0.062-0.875 0.75-0.344c0.038-0.098 0.059-0.14 0.094-0.218zm55.406 0.218l0.406 0.282v0.187l-0.406-0.313v-0.156zm-5.375 0.032l1.469 1.124v0.188l-1.469-1.125v-0.187zm-60.219 0.25l0.344 0.218-1.813 1.344-0.312-0.125 1.781-1.437zm9.094 0.156v0.906l-1.813 0.781v-0.875l1.813-0.812zm-8.344 0.062v0.875l-1.844 0.781v-0.312l1.844-1.344zm1.531 0.032l0.25 0.093-0.25 0.094v-0.187zm11.407 0.312l2.156 1.031-0.156 1.938c-0.711-0.357-1.435-0.683-2.063-0.875l0.063-2.094zm54.531 0.438l1.781 1.593-0.469-0.062-1.593-1.281 0.281-0.25zm-6.219 0.093l0.531 0.407v0.187l-0.531-0.406v-0.188zm-55.094 0.031v0.876l-0.437 0.187v-0.844l0.437-0.219zm49.782 0.094l1.406 1.094-0.032 1.406-1.406-1.156 0.032-1.344zm-47.25 0.188l0.312 0.312-6 2.594-0.188-0.281-0.312 0.5-2.094 0.906-0.25-0.187-0.344 0.406-2.531 1.125-0.093-0.031-0.063 0.093-2.281 0.969-0.313-0.281-0.343 0.562-0.907 0.407-0.187-0.094-0.188 0.25-1.094 0.468-0.187-0.062-0.094 0.188-3.437 1.468-0.375-0.437 20.969-8.875zm-3.219 0.031l0.031 0.844-1 0.406-0.062-0.781 1.031-0.469zm61.656 0.125l1.531 1.156v0.063l-1.531-1.157v-0.062zm-5.031 0.188l0.562 0.406-0.031 0.187-0.5-0.375-0.031-0.218zm-64.75 0.156l0.406 0.125-0.406 0.187v-0.312zm12.187 0.031c0.004 0.094 0.028 0.187 0.031 0.281l-0.156 0.594-5.562 2.438h-0.219l-0.375-0.563 6.281-2.75zm-5.343 0.063v0.843l-1.813 0.75v-0.781l1.813-0.812zm-9.5 0.031l0.343 0.219-1.812 1.343-0.313-0.125 1.782-1.437zm0.718 0.219v0.812l-1.812 0.75v-0.219l1.812-1.343zm21.313 0.124l1.593 0.75c-0.042 0.756-0.068 1.506-0.031 2.25-0.439-0.241-1.078-0.624-1.687-0.968l0.125-2.032zm46.25 0.032l1.469 1.125v0.219l-1.469-1.126v-0.218zm-51.407 0.094l8.126 4.406-0.376 1-8-4.094 0.25-1.312zm46.094 0.031l0.656 0.5v0.875l-0.687-0.032 0.031-1.343zm-24.625 0.031c-1.193 0.34-2.385 1.292-3.187 2.375-1.498 2.439-1.855 5.604 0 7.937 0.942 0.891 2.043 1.109 3.031 0.907-0.26 0.072-0.515 0.135-0.813 0.156-1.641-0.136-2.486-0.788-3.312-2.187-0.565-1.262-0.736-3.136-0.281-4.969 0.44-1.286 1.36-2.386 2.281-3.188 0.643-0.56 1.399-0.949 2.281-1.031zm0.688 0.156c0.094-0.004 0.187-0.003 0.281 0 0.684 0.027 1.37 0.27 2 0.813 1.845 2.204 1.389 5.244 0.062 7.562-1.355 2.047-4.022 3.373-5.937 1.5-1.861-2.205-1.393-5.177-0.063-7.5 0.863-1.308 2.248-2.305 3.657-2.375zm35.25 0.125l0.406 0.281v0.219l-0.406-0.312v-0.188zm-18.688 0.063l0.719 0.906-7.562 3.562-1.282-0.624 8.125-3.844zm-48.281 0.062v0.782l-0.438 0.187v-0.75l0.438-0.219zm31.531 0.25c-0.148 0.006-0.279 0.009-0.437 0.032-2.6 0.814-3.593 3.21-3.75 5.75 0.022 2.363 1.257 4.352 3.781 4 2.6-0.814 3.624-3.365 3.781-5.907-0.02-2.224-1.15-3.959-3.375-3.875zm-32.219 0.063l0.032 0.75-1.032 0.469-0.031-0.75 1.031-0.469zm32.25 0.062c2.107-0.125 3.004 1.956 3.126 3.875-0.026-0.122-0.108-0.217-0.188-0.218l-0.188 0.062c0.001-0.084 0.002-0.211 0-0.25-0.053-0.653-0.302-1.228-0.656-1.75l0.188-0.25c0.034-0.288-0.555-0.959-0.938-0.844l-0.094 0.188c-0.553-0.504-1.224-0.606-1.937-0.656 0.212-0.113 0.454-0.132 0.687-0.157zm-0.812 0.281c0.079-0.002 0.144-0.003 0.219 0 0.071 0.004 0.151 0.023 0.219 0.032l0.25 0.031c0.515 0.114 0.91 0.359 1.312 0.594l-1.375 2.5c-0.105-0.022-0.152-0.03-0.219-0.031-0.137-0.015-0.286 0.006-0.344 0.031 0.041-1.126 0.013-1.977-0.062-3.157zm-0.188 0.032c0.024 1.059 0.066 2.164 0.094 3.218 0.033 0.097-0.442 0.3-0.406 0.063l-0.312-2.937c0.194-0.136 0.406-0.236 0.624-0.344zm-24.187 0.031l0.031 1.344-1.812 0.781-0.032-1.312 1.813-0.813zm56.375 0.063l0.531 0.406v0.218l-0.531-0.406v-0.218zm-64.719 0.093v0.75l-1.812 0.781v-0.718l1.812-0.813zm59.375 0.031l1.438 1.094-0.032 1.25-1.406-1.156v-1.188zm-69.562 0.032l0.344 0.218-1.813 1.344-0.313-0.125 1.782-1.437zm2.937 0.031l0.313 0.094-0.313 0.156v-0.25zm39.031 0.187l0.313 2.75c-0.15-0.06-0.212 0.107-0.313 0.157l-1.374-1.313c0.349-0.616 0.808-1.164 1.374-1.594zm-41.218 0.032v0.937l-1.844 0.813v-0.438l1.844-1.312zm60.906 0l0.062 1.031-7.781 3.687-0.093-1.124 7.812-3.594zm-16.406 0.031c0.299-0.071 0.635 0.512 0.5 0.687l-1.688 2.094c-0.136-0.093-0.249-0.163-0.375-0.187 0.532-0.857 0.952-1.821 1.563-2.594zm36.75 0.063l1.776 1.593-0.46-0.062-1.598-1.281 0.282-0.25zm-69 0.124l0.75 1.188 0.875 0.094 0.719 0.937 0.718-0.25 0.844 1.281 0.844-0.156 0.718 1.188 0.876-0.25 0.718 1.25 0.875 0.031 0.688 1 0.875-0.063 0.718 1.094 1-0.218 0.563 1.218 0.969-0.406 0.625 1.438 0.875 0.187 0.687 0.844 0.938 0.156 0.656 0.844 1.094-0.594 0.469 1.625 0.75-0.062 0.812 1.093 0.938-0.25 0.656 1.25 0.875-0.187 0.687 1.218 0.844-0.062 0.75 1.094 0.656 0.437-0.625 0.344-0.75 1.063-0.656-0.407-0.719 0.688-0.687-0.031-0.625 0.687-0.813-0.031-0.625 0.687-0.781-0.937-0.656 1.562-0.781 0.032-0.657 0.718-0.75-0.718-0.719 1.343-0.687-0.031-0.719 0.625-0.718 0.031-0.75 0.719-0.657-0.313-0.719 0.594-0.562-0.718-0.844 1.374-0.718-0.062-0.688 0.719-0.719 0.781-0.719-0.125-0.843 0.75-0.625-1-0.656 1.75-0.719-0.156-0.594 0.625-0.719-1.438-0.844 0.938-0.687-0.813-0.813 0.188-0.75-1.031-0.781-0.063-0.562-1.594-1.157 0.469-0.468-1-0.938-0.094-0.562-0.968-0.969-0.188-0.531-0.906-0.875 0.125-0.625-1.219-0.875-0.25-0.563-1.594-0.968 0.5-0.563-0.844-1.063-0.187-0.437-1.375-1.063 0.281-0.343-1.281-0.844 0.312-0.75-1-1.094-0.343-0.406-0.75-1.094-0.344-0.437-0.969-1.063-0.031-0.3748-0.844-1.0624-0.25-0.6563-0.875 0.5625 0.063 0.3438-0.657 0.2187-0.093 0.7815 0.156 0.375-0.656 0.125-0.063 0.875 0.094 0.343-0.625 0.219-0.094 0.781 0.125 0.032-0.094-0.625-0.124 0.812-0.344-0.187 0.468 0.344-0.531 0.124-0.187 0.219 0.031 0.657 0.156 0.531-1.5 0.562 0.594 0.25 0.281 0.594-0.718 0.781 0.124 0.594-0.531 0.75-0.093 0.562-0.907 0.813 0.313 0.531-0.969 0.813 0.344 0.625-1.094 0.75 0.5 0.625-0.594 0.719-0.031 0.687-0.688 0.687 0.094 0.657-0.594 0.687-0.031 0.719-1.093 0.344 0.25 0.062 0.093 0.063-0.031 0.187 0.156 0.5-0.437 0.281-0.125 0.563-0.032 0.719-1zm62.75 0.032l1.187 0.875-0.031 0.219-1.125-0.876-0.031-0.218zm-59.438 0.281v0.813l-0.406-0.032v-0.625l0.406-0.156zm65.344 0.125l1.53 1.156v0.156l-1.53-1.156v-0.156zm-73.688 0.031v0.719l-0.437 0.188v-0.719l0.437-0.188zm-0.687 0.313l0.031 0.687-1.406 0.594-0.031-0.656 1.406-0.625zm38.469 0c0.325 0.501 0.447 1.074 0.5 1.718 0.014 0.093 0.001 0.146 0 0.219l-1.875 0.438c-0.042-0.158-0.129-0.284-0.219-0.438l1.594-1.937zm25.562 0.031l0.656 0.5v0.719l-0.687-0.032 0.031-1.187zm5.938 0.344l1.468 1.125v0.25l-1.468-1.125v-0.25zm-79.156 0.281l0.468 0.156v0.063l-0.468 0.219v-0.438zm42.437 0l1.687 1.594c-0.007 0.262-0.008 0.541-0.25 0.531l-1.75-1.469c0.089-0.218 0.202-0.451 0.313-0.656zm-34.937 0.094v0.656l-1.813 0.781v-0.625l1.813-0.812zm-10.376 0.031l0.344 0.219-1.812 1.344-0.313-0.126 1.781-1.437zm88.278 0.156l0.41 0.281v0.313l-0.41-0.313v-0.281zm-87.528 0.063v1l-1.843 0.781v-0.437l1.843-1.344zm78.407 0.281l0.719 0.813h0.75l0.374 1 1.032-0.094 0.468 0.906 0.876-0.188 0.437 1.25 1.094-0.656 0.219 1.719 0.968-0.406 0.344 1.469 0.938-0.094 0.374 1.156 0.808-0.125 0.5 1.187 0.76 0.094 0.53 1.469 0.09-0.063 0.03 0.094 0.31-0.281 0.54-0.313 0.4 1.126 0.91-0.126 0.4 1.188 0.91-0.062 0.41 1.156 0.9-0.094 0.41 1.156 0.9 0.032 0.41 1.031 0.91-0.219 0.4 1.281 0.85-0.062 0.47 1.125 0.96-0.125 0.32 1.093-1.13-0.312-0.34 0.969-1.09-0.875-0.35 1.375-0.84-0.407-0.41 1.063-0.81-0.25-0.5 0.75-0.94-0.937-0.53 1.124-0.75-0.124-0.44 0.937-0.97-0.969-0.53 1.094-0.65 0.219-0.6 0.812-0.75-0.469-0.62 0.688-0.69-0.5-0.562 0.906-0.75-0.031-0.563 0.937-0.75-1.062-0.625 2.031-0.781-0.469-0.531 0.438-0.688-1.062-0.562 1.25-0.75-0.376-0.532 0.907-0.906-1.844-0.719 2.937-0.531-1.218-0.75 0.437-0.688-1.875-0.624 0.719-0.594-1.125-0.782 1.062-0.468-2.156-0.969 0.469-0.656-1.719-0.688 0.563-0.969-1.531-0.718 0.437-0.719-1.469-0.813 0.313-0.624-1.344-0.657 0.375-0.812-1.406-0.563 0.468 0.5-0.031 0.969 1.281 0.437-0.468 0.688 1.375 0.844-0.313 0.656 1.344 0.812-0.219 0.782 1.375 0.781-0.406 0.594 1.531 0.875-0.219 0.687 2.188 0.657-1.188 0.812 1.063 0.469-0.719 0.656 1.75 0.813-0.218 0.562 1.093c-0.18 2.241 0.695 3.674-0.562 6.719-7.11-6.213-15.077-11.57-22.626-17.344-1.238-2.335-0.27-4.396-0.312-6.531l0.031-0.031 1.375 0.312 0.469 1.406 0.937-0.906 0.469 2.063 0.938-0.219 0.625 1.312 0.781-0.187 0.844 1.281 0.593-0.312 0.719 1.531 0.157-0.125-0.782-1.75-0.594 0.562-0.843-1.593-0.719 0.437-0.719-1.468-0.906 0.281-0.531-2.281-0.844 1.187-0.469-1.469-1.375-0.218 0.688-0.813 0.844 0.563 0.656-0.75 0.656 0.687 0.812-1.5 0.626 0.469 0.812-1.094 0.938 0.531 0.624-1 0.75 0.875 0.782-1.5 0.844 0.5 0.75-0.5 0.75-0.031 0.75-0.969 0.75 0.406 0.718-1.437 0.75 0.656 0.75-0.531 0.875 0.375 0.688-0.719 0.719 0.438 0.843-0.938 0.75 0.406 0.688-1.062 0.906 0.375 0.75-0.937 0.75 0.374 0.656-0.874 0.094-0.094h0.031l0.532 0.344 0.312-0.563 0.469-0.75zm-15.531 15.375l0.531-0.375 0.843 1.313 0.626-1.094 0.874 1.968h0.094l-0.906-2.25-0.688 1.126-0.718-1.407-0.656 0.719zm14.218-15.281l0.719 0.562-0.25 0.375-0.469-0.187v-0.75zm-32.906 0.093l1.344 1.094c-0.032 0.064-0.05 0.152-0.063 0.219l-0.031 0.156c-0.005 0.075 0.005 0.144 0 0.219l-1.656 0.156c0.237-0.9 0.027-0.855 0.406-1.844zm-36.75 0.25v0.626l-0.438 0.187v-0.625l0.438-0.188zm75.625 0.032l0.531 0.375v0.25l-0.531-0.407v-0.218zm-36.75 0.031v0.156c0.2 0.3 0.452 0.079 0.594-0.093h0.093c-0.154 0.111-0.296 0.234-0.437 0.406-0.369 0.636-0.409 1.32-0.031 1.937 0.007 0.012 0.023 0.02 0.031 0.031 0.091 0.07 0.195 0.119 0.281 0.157l-0.281 0.031c0.017-0.083 0.004-0.164-0.031-0.219-0.105-0.163-0.39-0.213-0.5-0.25-0.059 0.09-0.099 0.163-0.156 0.25-0.077-0.105-0.141-0.224-0.188-0.343l0.312-0.063c0.174-0.27 0.025-0.521-0.093-0.656l-0.344 0.031c-0.021-0.125 0.024-0.23 0.063-0.344l0.093-0.062 0.313 0.25c0.182-0.138 0.382-0.414 0.312-0.813l-0.281-0.25 0.25-0.156zm1.031 0.031c0.226-0.028 0.498 0.09 0.719 0.219 0.142 0.474 0.506 0.839-0.187 1.813-0.402 0.387-0.694 0.366-1.188 0.25-0.355-0.509-0.223-1.315 0.031-1.844 0.157-0.217 0.4-0.409 0.625-0.438zm9.032 0.094l0.937 0.562 0.25 1.063-1.313-0.469 0.126-1.156zm-49.626 0.125l0.032 0.594-1.688 0.719-0.031-0.563 1.687-0.75zm43.844 0.031c0.126 0.097 0.231 0.52-0.062 0.782h-2.094c-0.039-0.164 0.074-0.242-0.031-0.344l2.187-0.438zm39.684 0.156l1.79 1.594-0.47-0.062-1.6-1.282 0.28-0.25zm-43.059 0.157c-0.251 0.198-0.404 0.452-0.406 0.719-0.002 0.266 0.141 0.529 0.344 0.781h0.437c0.56-0.423 0.477-0.976 0.313-1.5h-0.688zm36.688 0l1.406 1.062v0.25l-1.375-1.062-0.031-0.25zm-36.188 0.187c0.084 0.061 0.104 0.308 0.125 0.469 0.021 0.154-0.071 0.423-0.218 0.594l-0.407 0.093c-0.133-0.184-0.188-0.454-0.187-0.593 0.001-0.147 0.117-0.39 0.281-0.531l0.406-0.032zm3.125 0.032c-0.087 0.891-0.315 1.728-0.718 2.5 0.193-0.676 0.292-1.363 0.343-2.063h0.219c0.073-0.125 0.124-0.272 0.156-0.437zm-53.5 0.093l0.469 0.157v0.093l-0.469 0.188v-0.438zm92.594 0.094l1.53 1.156v0.313l-1.53-1.188v-0.281zm-85.125 0.094v0.593l-1.813 0.782v-0.563l1.813-0.812zm-10.5 0.093l0.3438 0.219-1.8126 1.344-0.3124-0.125 1.7812-1.438zm54.125 0l1.906 0.063c-0.01 0.323-0.038 0.649-0.094 0.969l-0.968 0.468-1-0.812c0.124-0.398 0.155-0.381 0.156-0.688zm-53.406 0.25v0.876l-1.8126 0.781v-0.344l1.8126-1.313zm50.781 0.063c0.134 0.121 0.176 0.254 0.031 0.375l-2.062 0.5c-0.039-0.221-0.035-0.496-0.032-0.719l2.063-0.156zm39.844 0.437l1.469 1.094v0.282l-1.469-1.126v-0.25zm-37.469 0.032l1.75 1.437c-0.076 0.201-0.152 0.409-0.25 0.594l-1.688-1.781c0.04-0.042 0.087-0.111 0.126-0.156l0.062-0.094zm-45.594 0.125v0.531l-0.437 0.188v-0.532l0.437-0.187zm42.969 0.031c0.045 0.101 0.105 0.213 0.187 0.344l-0.031 0.156c-0.421 0.626-0.836 1.191-1.312 1.812-0.309-0.543-0.496-1.185-0.594-1.843l1.75-0.469zm0.656 0.156c0.159-0.005 0.267 0.23 0.125 0.344l-1.468 2.469c-0.141-0.15-0.263-0.32-0.376-0.5 0.567-0.672 1.068-1.501 1.563-2.219 0.051-0.067 0.103-0.092 0.156-0.094zm45.559 0l0.41 0.282v0.437l-0.41-0.313v-0.406zm-43.902 0.032l0.656 0.718-0.969 0.469-0.063-0.906c0.136-0.059 0.251-0.166 0.376-0.281zm-45.969 0.093l0.031 0.5-1.625 0.688-0.031-0.469 1.625-0.719zm45.406 0.25l0.281 3.063c-0.094 0.04-0.182 0.059-0.281 0.094-0.119 0.022-0.232 0.052-0.344 0.062l-0.031-3.188c0.131-0.008 0.245-0.02 0.375-0.031zm-0.563 0.031l0.032 1.188-1.313 0.625 1.031-1.781c0.08-0.007 0.174-0.024 0.25-0.032zm3.376 0.094c-0.044 0.167-0.1 0.339-0.157 0.5l-0.343-0.281 0.5-0.219zm34.218 0.094l1 0.75-0.718 0.344-0.282-1.094zm-78.906 0.094l-0.062 0.125-0.657 0.156 0.719-0.281zm-13.031 0.125l0.4687 0.156-0.4687 0.187v-0.343zm7.6252 0.125v0.5l-1.813 0.781v-0.469l1.813-0.812zm87.406 0.062l0.53 0.406v0.25l-0.56-0.406 0.03-0.25zm-82.969 0.094l-0.406 0.344-0.25-0.063 0.656-0.281zm44.407 0l0.718 0.75c-0.488 0.644-1.098 1.181-1.875 1.531l-0.125-1.687 1.282-0.594zm-47.063 0.031l-0.25 0.688-6.6875 2.875-0.0937-0.032v0.094l-1.3438 0.563-0.5312-0.438 8.9062-3.75zm83.656 0.313l23.599 17.937-0.26 0.188v0.406l-0.65 0.281-0.44-0.312v-0.375l-0.72-0.157-6.59-5.031-0.44-1.187-0.81 0.281-0.59-1.063-0.76-0.031-0.65-1.187-0.66 0.125-0.56-1-0.75-0.094-0.59-1.031-0.75-0.063-0.57-1.125-0.75 0.032-0.53-1.032-0.81-0.062-0.59-1.156-0.72 0.562-0.25-0.188-0.47-1.187-0.81-0.344-0.41-0.875-0.72-0.062-0.468-0.906-0.843-0.188-0.438-1.156zm9.189 0.094l1.78 1.593-0.47-0.062-1.59-1.281 0.28-0.25zm-6.38 0.124l1.29 0.938-0.04 0.281-1.22-0.937-0.03-0.282zm-85.434 0.126l-0.125 0.25-0.093-0.126 0.218-0.124zm-5.031 0.156v0.468l-0.437 0.188v-0.469l0.437-0.187zm48.969 0.125l0.031 1.531c-0.74 0.027-1.325-0.209-1.781-0.625l0.031-0.063 1.719-0.843zm47.526 0.031l1.54 1.156v0.282l-1.54-1.188v-0.25zm-97.182 0.125l0.0313 0.469-1.7813 0.75-0.0313-0.406 1.7813-0.813zm4.2505 0.187l-0.094 0.282-0.344-0.063 0.438-0.219zm-10.688 0.157c0.1716 0.01 0.3883 0.224 0.5312 0.25-0.5423 0.679-0.2188 0.792-0.2812 1.562-0.118-0.048-0.4275-0.104-0.4688-0.156-0.3618-0.459-0.0998-1.022 0.0626-1.594 0.0408-0.051 0.099-0.066 0.1562-0.062zm99.22 0.312l1.47 1.094-0.03 0.281-1.47-1.125 0.03-0.25zm-94.845 0.281v0.407l-1.7812 0.75v-0.375l1.7812-0.782zm101.1 0.219l0.41 0.281v0.407l-0.41-0.313v-0.375zm-97.345 0.188l-0.219 0.343-0.375-0.093 0.594-0.25zm-5.9375 0.562v0.375l-0.2813 0.094-0.1562-0.125v-0.156l0.4375-0.188zm4.5315 0.031l-0.157 0.313-0.4058-0.063 0.5628-0.25zm94.281 0.063l0.53 0.406v0.313l-0.56-0.438 0.03-0.281zm-99.531 0.187l0.0312 0.032 0.0312 0.031 0.25 0.187 0.3126 0.282 0.9062 0.812 0.25 0.25-0.4688-0.062-1.5937-1.282 0.2813-0.25zm3.875 0.344l-0.2188 0.469-0.375-0.187 0.5938-0.282zm96.496 0.125l1.41 1.063v0.312l-1.37-1.062-0.04-0.313zm-101.12 0.094l0.125 0.094v0.656l-0.5-0.375 0.375-0.375zm0.4062 0l1.5312 1.156-0.2187 9.25-1.4063-1.156 0.0938-9.25zm3.25 0.25l0.1562 0.031 0.5313 1.032 1.125 0.312 0.4065 0.781 1.218 0.031 0.313 1.094 1.094 0.282 0.437 0.812 1.125 0.281 0.75 1 0.813-0.281 0.375 1.219 1.031-0.188 0.5 1.281 0.938 0.313 0.593 0.813 1.063-0.469 0.437 1.562 0.907 0.25 0.624 1.188 0.876-0.031 0.656 0.812 0.812 0.125 0.719 1 0.906 0.094 0.625 1 0.969-0.5 0.563 1.593 0.843 0.157 0.688 0.969 0.812-0.188 0.719 1.281 0.781-1.281 0.688 1.5c0.157 1.095 0.267 2.225 0.187 3.344l-1.812-1.375v-0.938l-2.5-2.093-0.344 0.437v0.406l-1.531-1.125v-1l-2.5-2.094-0.344 0.438v0.469l-1.406-1.031v-0.907l-2.5-2.093-0.344 0.437v0.375l-1.531-1.125v-0.844l-2.5-2.093-0.344 0.437v0.313l-1.281-0.969v-0.813l-2.5-2.094-0.344 0.438v0.281l-0.656-0.469v-0.781l-2.2815-1.875c-0.2416-0.072-0.4028-0.117-0.5313-0.156-0.0125-0.458-0.0512-0.965-0.0312-1.375zm104.46 0.063l1.78 1.593-0.46-0.062-1.6-1.281 0.28-0.25zm-104.78 0.031l-0.0313 1.031-0.3124 0.125v-0.344l-0.5313-0.437 0.875-0.375zm-4.0937 0.312l0.8437 0.625-0.0313 1.532-1.1562-0.876 0.3438-1.281zm108.53 0.219l1.53 1.156v0.25l-1.53-1.156v-0.25zm-4.91 0.344l1.47 1.125-0.03 0.281-1.47-1.094 0.03-0.312zm-100.62 0.062l0.4062 0.282 0.0625 9.031-0.6875-0.031 0.2188-9.282zm1.4374 0.406h0.0313v0.219l-0.0313 0.031c0.0003-0.079 0.002-0.165 0-0.25zm-0.4062 0.188v0.094l-0.0625-0.063 0.0625-0.031zm0.9688 0.062l1.7812 1.594-0.4688-0.062-1.5937-1.282 0.2813-0.25zm105.37 0.219l0.41 0.281v0.407l-0.41-0.313v-0.375zm-106.62 0.125l0.625 0.469v0.625l-0.625-0.469v-0.625zm0.9062 0.219l1.5312 1.156-0.2187 9.25-1.4063-1.156 0.0938-9.25zm100.76 0.063l0.53 0.406v0.344l-0.57-0.438 0.04-0.312zm-48.786 0.093c-1.026 0.458-1.243 1.401-1.094 2.563l1.344 1.375 0.125 8c-1.988 0.872-1.975 1.546-2.469 2.312l0.594 4.469c0.534 0.097 1.062 0.239 1.594 0.344l-6.407 2.531-0.375 8.687 6.5 5.563 9.188-4.219-0.188-8-5.594-4.687c0.255-0.089 0.51-0.202 0.782-0.344l0.437-4.5-0.25-0.156c-0.796-1.528-2.065-1.637-3.187-2.188l-0.219-7.281 8.875 8.969c-0.539 0.353-1.067 0.151-1.562-1.469l-0.719-0.375c0.121 1.895 0.64 3.677 1.937 5.219l-0.094 10.562c0.986 0.107 1.984 0.532 2.969-0.125-0.475-3.948-0.499-7.895-1.5-11.843l0.313-0.626 9.094 9.219c0.718 0.121 1.021-0.608 1.406-1.156l-9.438-10.031 0.782-1.5-0.75-0.594c-0.335 0.167-0.69 0.567-1.032 1.031l-9.844-10.469c0.098-0.386-0.129-0.664-0.5-0.5l-0.718-0.781zm-0.032 0.438l0.626 0.656c-0.06 0.6-0.327 1.248-0.344 2l-1.188-1.219 0.906-1.437zm49.658 0.125l1.9 1.437v0.344l-1.87-1.437-0.03-0.344zm-102.5 0.281l0.5937 0.469-0.0313 1.5-0.5624-0.438v-1.531zm2.75 0.281l0.4062 0.282 0.063 9.031-0.688-0.031 0.2188-9.282zm107 0.032l1.78 1.593-0.47-0.062-1.59-1.281 0.28-0.25zm-112.94 0.218l0.2188 0.156-0.0312 0.657-0.5626-0.438 0.375-0.375zm57.188 0.282l9.687 10.437c-0.258 0.361-0.493 0.722-0.75 1l-9.312-9.469 0.375-1.968zm55.401 0.062l1.54 1.156v0.282l-1.54-1.157v-0.281zm-104.65 0.188l1.781 1.593-0.469-0.062-1.593-1.281 0.281-0.25zm-8.6878 0.124l0.9376 0.688-0.0626 1.531-1.2187-0.937 0.3437-1.282zm108.69 0.219l1.47 1.125-0.03 0.344-1.47-1.125 0.03-0.344zm-101.25 0.031l0.625 0.469v0.594l-0.625-0.437v-0.626zm0.906 0.188l1.531 1.156-0.218 9.25-1.407-1.156 0.094-9.25zm106.84 0.531l0.41 0.281v0.438l-0.41-0.312v-0.407zm-110.84 0.407l0.125 0.093v0.219l-0.125-0.094c-0.0051-0.075 0.0043-0.146 0-0.218zm3.094 0.093l0.593 0.438-0.031 1.531-0.562-0.406v-1.563zm103.03 0.125l0.53 0.406v0.344l-0.56-0.406 0.03-0.344zm-100.28 0.125l0.406 0.281 0.063 9.032-0.688-0.032 0.219-9.281zm-6.219 0.031l0.5 0.376-0.0312 0.656-0.4688-0.375v-0.657zm107.34 0.5l1.66 1.25-0.03 0.344-1.6-1.25-0.03-0.344zm7.13 0.376l1.78 1.593-0.47-0.062-1.59-1.281 0.28-0.25zm-66.658 0.156c0.034 0.578 0.127 1.179 0.25 1.812 0.002 0.01-0.001 0.022 0 0.032 0.268 1.909 0.335 3.697 0.032 5.281-0.062 0.148-0.139 0.29-0.219 0.437l-18.563 9.032-0.343-0.25v-0.907l-2.5-2.093-0.344 0.437v0.375l-0.031-0.031c0.026-1.235-0.082-2.468 0-3.657l0.437-0.531 0.625 0.063 0.782-1.532 0.624 0.844 0.719-0.687 0.719 0.031 0.75-0.688 0.75-0.781 0.688 0.031 0.843-1.218 0.594 0.656 0.656-0.625 0.719 0.281 0.75-0.75 0.688 0.094 0.781-0.75 0.625 0.062 0.812-1.343 0.625 0.687 0.813-0.781 0.625 0.094 0.843-1.469 0.563 0.812 0.687-0.687h0.75l0.75-0.719 0.688 0.063 0.656-0.594 0.813 0.719 0.625-1.5 0.718-0.25zm-40.843 0.125l1.25 0.937v0.594l-1.25-0.938v-0.593zm-6.969 0.093l0.4375 0.344-0.0313 1.5-0.4062-0.281v-1.563zm8.844 0l1.781 1.594-0.469-0.062-1.594-1.282 0.282-0.25zm105.29 0.188l1.53 1.156v0.438l-1.53-1.156v-0.438zm-105.63 0.375l1.531 1.156-0.219 9.25-1.406-1.156 0.094-9.25zm-5.031 0.156l0.531 0.375v0.219l-0.5-0.406-0.031-0.188zm105.87 0.031l1.47 1.126-0.03 0.343-1.47-1.125 0.03-0.344zm-102.37 0.376l1.219 0.906-0.032 1.531-1.187-0.906v-1.531zm-3.469 0.281l0.5 0.375-0.031 0.656-0.469-0.375v-0.656zm112.47 0.062l0.4 0.281v0.563l-0.4-0.281v-0.563zm-105.63 0.375l0.406 0.282 0.062 9.031-0.687-0.031 0.219-9.282zm94.406 0.188l0.94 0.094 0.03-0.032c0.11 1.844 1.37 3.688 0.59 5.532-3.58 2.358-7.79 3.128-11.68 4.687-3.548 1.856-5.838 4.047-10.974 5.469 1.365-2.194 0.359-4.646 0.563-6.969h-0.031l0.656-2.313 0.781 1.719 0.625-1.125 0.656 0.563 0.625-1.188 0.688 0.719 0.625-0.312 0.656 0.531 0.719-1.969 0.625 1.188 0.687-1.25 0.657 0.031 0.622-0.938 0.78 0.657 0.54-0.907 0.71 0.531 0.72-0.906 0.6-0.094 0.53-1.093 0.84 1 0.63-0.938 0.68-0.031 0.47-1.062 0.91 0.937 0.62-0.656 0.72 0.093 0.6-1.031 0.75 0.469 0.37-1.281 0.97 0.75 0.5-0.875zm6.38 0.062l0.53 0.406v0.376l-0.57-0.407 0.04-0.375zm-107.63 0.532l0.438 0.343-0.032 1.563-0.406-0.344v-1.562zm102.91 0.062l0.65 0.5v0.594l-0.69-0.032 0.04-1.062zm5.56 0.062l1.78 1.344-0.03 0.375-1.72-1.312-0.03-0.407zm-100.88 0.282l1.5 1.156v0.531l-1.5-1.093v-0.594zm2.125 0.218l1.781 1.594-0.469-0.062-1.593-1.282 0.281-0.25zm-6.25 0.126l1.156 0.843v0.25l-1.125-0.875-0.031-0.218zm5.906 0.437l1.531 1.156-0.218 9.25-1.407-1.156 0.094-9.25zm-5.875 0.281l1.125 0.813-0.031 0.625-1.094-0.813v-0.625zm4.094 0.125l1.468 1.125-0.031 1.5-1.437-1.062v-1.563zm103 0.125l1.47 1.125-0.03 0.407-1.47-1.126 0.03-0.406zm-4.81 0.532l1.44 1.093-0.03 1.125-1.41-1.156v-1.062zm-94.561 0.218l0.406 0.282 0.063 9.031-0.688-0.031 0.219-9.282zm104.62 0.125v1.907l-0.56-0.032c0.28-0.713 0.1-1.257 0.06-1.844l0.5-0.031zm-112.34 0.094l1.062 0.781-0.031 1.532-1.031-0.813v-1.5zm109.59 0.031l0.35 0.219-1.81 1.344-0.32-0.125 1.78-1.438zm0.72 0.219l0.1 8.031-1.82 0.782-0.09-7.469 1.81-1.344zm-6.28 0.656l0.66 0.5v0.563l-0.69-0.032 0.03-1.031zm-95.561 0.125l1.375 1.032v0.531l-1.375-1v-0.563zm49.531 0l-1.812 4.188 1.406 11.031-2.032 0.187v-10.281l-1.031-1.531-0.781-2.094c1.436 2.719 1.68 0.696 2.594 0.594l1.656-2.094zm-47.531 0.032l1.781 1.593-0.469-0.062-1.593-1.281 0.281-0.25zm-6.375 0.093l1.406 1.094v0.187l-1.375-1.031-0.031-0.25zm106.41 0.281l0.16 0.157-0.13 0.062-0.03-0.219zm-100.38 0.188l1.531 1.156-0.218 9.25-1.407-1.156 0.094-9.25zm94.875 0l0.09 0.062-0.09 0.094v-0.156zm0.22 0.156h0.62l-1.87 1.375-0.31-0.125 0.97-0.781 0.37-0.313 0.22-0.156zm6.06 0l-0.25 0.906-0.47 0.188-0.03-0.75 0.75-0.344zm-107.16 0.063l1.375 1.062-0.031 0.563-1.344-1v-0.625zm42.875 0.062c0.916-0.04 1.699 0.872 2.438 1.688-0.702-0.114-1.645-0.146-2.657-0.157-1.278 0.101-1.824 0.583-2.343 1.063l-0.032-0.125c0.009-1.038 0.674-2.16 2.094-2.375 0.17-0.073 0.34-0.087 0.5-0.094zm60.69 0.031l0.47 0.157v6.656l-0.41-0.031-0.06-6.782zm-1.97 0.219l0.44 0.344 0.09 7.344-1.81 0.781-0.1-7.469 1.38-1zm-97.251 0.063l1.343 1-0.031 1.531-1.312-0.969v-1.562zm98.941 0.281v0.437l-1.04 0.438-0.03-0.438 1.07-0.437zm-49.722 0.344l8.843 9.5c-0.051 0.386 0.01 0.885-0.719 0.593l-8.718-8.937 0.594-1.156zm-45.719 0.062l0.406 0.281 0.063 9.032-0.688-0.032 0.219-9.281zm99.251 0.125l0.59 0.438-0.22 0.218-0.72-0.531 0.35-0.125zm-107.1 0.063l1.313 1-0.032 1.531-1.281-0.969v-1.562zm97.125 0.156l0.34 0.219-1.81 1.344-0.31-0.126 1.78-1.437zm6.19 0.156v0.813l-1 0.437-0.07-0.812 1.07-0.438zm-5.44 0.063l0.06 8.031-1.78 0.781-0.12-7.468 1.84-1.344zm1.53 0.031l0.47 0.156v6.657l-0.41-0.032-0.06-6.781zm7.06 0.156l0.47 0.344-0.43 0.187-0.04-0.531zm-62.934 0.25c0.668-0.035 1.258 0.047 1.625 0.313-0.433 0.58-1.331 0.686-2.093 0.937-0.789-0.091-1.483 0.209-2.376-0.406 0.612-0.316 0.696-0.89 2.157-0.781 0.239-0.029 0.465-0.051 0.687-0.063zm64.504 0.031v1.907l-0.22-0.031c0.21-0.451 0.25-0.509-0.19-0.969-0.04-0.147-0.07-0.608-0.09-0.875l0.5-0.032zm-8.91 0.282v0.468l-1.03 0.438-0.03-0.469 1.06-0.437zm-90.531 0.031l1.5 1.156v0.5l-1.5-1.125v-0.531zm2.125 0.187l1.781 1.594-0.469-0.062-1.594-1.282 0.282-0.25zm-6.375 0.032l1.281 0.968v0.25l-1.25-1-0.031-0.218zm41.343 0.187l-0.593 2.625c-0.845 1.059-2.732 1.19-4.344 0.406l-0.344-2.374c0.615 0.326 1.702 0.336 2.657 0.437 1.224-0.106 2.047-0.502 2.624-1.094zm60.848 0h0.03l0.31 0.313-0.31 0.125-0.03-0.438zm-3.44 0.063l0.25 0.218 0.03 0.563-1 0.406-0.06-0.843 0.78-0.344zm-92.72 0.281l1.531 1.156-0.219 9.25-1.406-1.156 0.094-9.25zm84.84 0.156l0.47 0.157v6.656l-0.4-0.032-0.07-6.781zm3.94 0l0.03 0.813-1.06 0.468-0.03-0.843 1.06-0.438zm8.35 0l-0.22 0.907-0.66 0.281-0.06-0.813 0.94-0.375zm-103.13 0.031l1.219 0.969v0.531l-1.219-0.937v-0.563zm88.19 0.094l0.34 0.219-1.81 1.344-0.31-0.125 1.78-1.438zm-83.971 0.125l1.469 1.125-0.032 1.532-1.437-1.094v-1.563zm84.691 0.094l0.09 8.031-1.81 0.782-0.1-7.469 1.82-1.344zm1.65 0.437l0.03 0.5-1.46 0.626-0.04-0.5 1.47-0.626zm8.44 0.032v0.468l-0.97 0.407-0.03-0.469 1-0.406zm-91.156 0.312l0.406 0.282 0.062 9.031-0.687-0.031 0.219-9.282zm-7.844 0.125l1.188 0.907-0.032 1.531-1.156-0.875v-1.563zm94.81 0l0.03 0.813-1.03 0.437-0.03-0.781 1.03-0.469zm4.22 0.469l0.03 0.844-0.97 0.406-0.03-0.844 0.97-0.406zm-8.44 0.031l0.04 0.875-1.44 0.625-0.06-0.875 1.46-0.625zm-7.25 0.25l0.35 0.219-1.82 1.344-0.31-0.125 1.78-1.438zm2.94 0.031l0.47 0.157v6.656l-0.41-0.031-0.06-6.782zm-2.19 0.219l0.07 8-1.79 0.781-0.12-7.468 1.84-1.313zm-75.496 0.125l2 1.532v0.531l-2-1.5v-0.563zm-4.344 0.156l1.375 1.032v0.281l-1.375-1.031v-0.282zm90.59 0l0.03 0.469-1 0.438-0.03-0.5 1-0.407zm-8.84 0.126v0.531l-1.72 0.75-0.03-0.531 1.75-0.75zm-74.781 0.374l1.781 1.594-0.469-0.062-1.593-1.282 0.281-0.25zm79.411 0.032l0.03 0.75-1.41 0.594-0.06-0.719 1.44-0.625zm-86.38 0.187l1.344 1.063v0.5l-1.344-1v-0.563zm90.62 0.219l0.04 0.844-1 0.437-0.04-0.875 1-0.406zm-86.276 0.125l1.968 1.469-0.031 1.531-1.937-1.469v-1.531zm2.281 0l1.531 1.156-0.218 9.25-1.407-1.156 0.094-9.25zm29.063 0l5.656 4.625-8.375 3.844-5.563-5.594 6.969-2.781c0.422 0.021 0.855 0.003 1.313-0.094zm46.092 0.063l0.03 0.906-1.72 0.75-0.03-0.906 1.72-0.75zm-46.561 0.218l-6.531 2.594 4.437 4.406 6.781-2.625-4.687-4.375zm41.971 0.032l0.47 0.156v6.656l-0.41-0.031-0.06-6.781zm-2.88 0.124l0.35 0.219-1.816 1.344-0.313-0.125 1.779-1.438zm0.75 0.219l0.06 8.031-1.78 0.782-0.12-7.469 1.84-1.344zm11.35 0.031l0.03 0.469-1.41 0.594-0.03-0.5 1.41-0.563zm-86.41 0.188l1.312 1-0.031 1.531-1.281-1v-1.531zm34.844 0.062v1.532l-4.282 1.656-1.031-0.969 5.313-2.219zm42.066 0.157l0.03 0.531-1.66 0.688-0.03-0.532 1.66-0.687zm-41.504 0.062l3.438 3.157-1.375 0.562-2.094-2.281 0.031-1.438zm-26.937 0.125l0.406 0.282 0.063 9.031-0.688-0.031 0.219-9.282zm73.341 0.125l0.03 0.688-1.68 0.719-0.04-0.657 1.69-0.75zm4.63 0.219l0.03 0.875-1.38 0.594-0.03-0.875 1.38-0.594zm-9.5 0.469l0.03 0.937-1.63 0.719-0.06-0.969 1.66-0.687zm-72.596 0.125l1.062 0.812c-0.046 0.065-0.105 0.125-0.156 0.188l-0.875-0.688-0.031-0.312zm68.062 0.125l0.469 0.156v6.656l-0.406-0.031-0.063-6.781zm-63.187 0.156l1.75 1.313v0.5l-1.75-1.313v-0.5zm72.621 0.063l0.04 0.531-1.69 0.687-0.03-0.562 1.68-0.656zm-46.996 0.062l-0.032 2.156-2.343 1.125-1.625-1.531 4-1.75zm34.531 0l0.344 0.219-1.813 1.343-0.312-0.124 1.781-1.438zm-34 0.219l1.969 2.093-1.219 0.5-0.813-0.562 0.063-2.031zm34.719 0.031l0.094 8-1.782 0.781-0.125-7.469 1.813-1.312zm-58.5 0.062l1.781 1.594-0.469-0.062-1.594-1.282 0.282-0.25zm-7.219 0.032l0.687 0.5 1.188 0.937-0.031 0.469-1.844-1.375v-0.531zm67.75 0.094l0.031 0.562-1.844 0.75-0.031-0.594 1.844-0.718zm-66.437 0.156l0.562 0.437v0.313l-0.656-0.5c0.04-0.08 0.057-0.17 0.094-0.25zm21.562 0.187l5.531 5.281v0.782l-5.562-5.094 0.031-0.969zm-16 0.094l1.531 1.156-0.219 9.25-1.406-1.156 0.094-9.25zm65.72 0l0.03 0.625-1.62 0.688-0.04-0.594 1.63-0.719zm4.91 0.063l0.03 0.906-1.66 0.687-0.03-0.875 1.66-0.718zm-72.661 0.093l1.719 1.313-0.032 1.531-1.687-1.281v-1.563zm62.937 0.469l0.032 0.969-1.813 0.781-0.063-1 1.844-0.75zm-67.781 0.031l1.813 1.407-0.032 1.531-1.781-1.313v-1.625zm59.969 0.375l0.344 0.219-1.813 1.344-0.313-0.125 1.782-1.438zm3.125 0l0.469 0.156v6.657l-0.407-0.031-0.062-6.782zm9.531 0.032l0.03 0.531-1.59 0.687-0.03-0.562 1.59-0.656zm-49.781 0.062l5.562 5.062 0.031 2.282-5.656-5.313 0.063-2.031zm37.875 0.125l0.062 8.031-1.781 0.782-0.125-7.469 1.844-1.344zm-52 0.031l0.406 0.282 0.062 9.031-0.687-0.031 0.219-9.282zm22.218 0.25l0.626 0.469-0.657 0.281 0.031-0.75zm-0.5 0.032v0.906l-1.562 0.656-0.625-0.562 2.187-1zm32.376 0v0.656l-1.876 0.781-0.031-0.625 1.907-0.812zm-25.782 0.187v0.781l-8.062 3.594v-0.594l8.062-3.781zm30.782 0.313l0.031 0.531-1.813 0.75v-0.5l1.782-0.781zm4.842 0.031l0.03 0.937-1.56 0.688-0.06-0.969 1.59-0.656zm-67.811 0.281l1.656 1.281v0.313l-1.625-1.219-0.031-0.375zm4.625 0.125l1.875 1.406v0.5l-1.875-1.406v-0.5zm53.375 0.187l0.031 1-1.875 0.844-0.063-1.031 1.907-0.813zm-25.781 0.063l0.031 2.031-8.094 4-0.031-2.281 8.094-3.75zm18.281 0.031l0.343 0.219-1.812 1.344-0.312-0.125 1.781-1.438zm-43.375 0.156l1.781 1.594-0.469-0.062-1.594-1.282 0.282-0.25zm46.094 0l0.468 0.157v6.656l-0.406-0.031-0.062-6.782zm-1.969 0.063l0.062 8.031-1.781 0.782-0.125-7.469 1.844-1.344zm11.75 0.031l0.031 0.594-1.781 0.75-0.031-0.594 1.781-0.75zm-62.969 0.156l1.625 1.219-0.031 0.469-1.594-1.188v-0.5zm17.906 0.25l5.656 5.219 0.032 1.781-5.75-4.843 0.062-2.157zm-11.156 0.063l1.531 1.156-0.219 9.25-1.406-1.156 0.094-9.25zm-2.156 0.156l1.844 1.375-0.032 1.563-1.812-1.375v-1.563zm48.312 0.031l0.032 0.594-1.532 0.656-0.031-0.656 1.531-0.594zm10.094 0.438l0.031 0.969-1.75 0.75-0.031-1 1.75-0.719zm-5 0.062l0.031 0.469-1.875 0.813v-0.5l1.844-0.782zm-58 0.157l1.562 1.219-0.031 1.531-1.531-1.188v-1.562zm48.562 0.343l0.469 0.157v6.656l-0.375-0.031v-0.25h-0.031v-1.063l-0.031-0.5-0.032-4.969zm-39.968 0.094l0.406 0.282 0.062 9.031-0.687-0.031 0.219-9.282zm44.344 0.063l0.031 1.031-1.469 0.625-0.062-1.063 1.5-0.593zm-20.719 0.187l0.031 1.719-8.094 3.969-0.031-1.813 8.094-3.875zm25.812 0.032l0.031 0.624-1.843 0.75-0.031-0.624 1.843-0.75zm-9.75 0.5l0.031 0.656-0.781 0.344-0.281-0.563 1.031-0.437zm-30.437 0.156l5.75 4.937 0.031 1.969-5.844-5.125 0.063-1.781zm-13.25 0.187l1.781 1.344v0.313l-1.75-1.313-0.031-0.344zm4.75 0.188l1.25 0.937v0.469l-1.25-0.937v-0.469zm1.875 0.093l1.781 1.594-0.469-0.062-1.593-1.282 0.281-0.25zm46.843 0l0.032 1-1.813 0.782-0.062-1 1.843-0.782zm-5.093 0.157l0.031 0.437-1.469 0.594-0.031-0.406 1.469-0.625zm-6.094 0.093c0.172 0.011 0.388 0.225 0.531 0.25-0.542 0.679-0.219 0.793-0.281 1.563-0.118-0.049-0.427-0.104-0.469-0.156-0.362-0.459-0.1-1.023 0.063-1.594 0.041-0.051 0.099-0.066 0.156-0.063zm-42.25 0.25l1.719 1.313v0.469l-1.719-1.313v-0.469zm6.25 0.063l1.531 1.156-0.218 9.249-1.407-1.16 0.094-9.245zm37.437 0l0.032 1.063-0.688 0.312c-0.609-0.329-0.614-0.402-0.062-1.062l0.718-0.313zm-16.062 0.125l0.031 1.906-8.125 3.656v-1.468l8.094-4.094zm20.75 0.281l0.031 0.657-1.437 0.593-0.032-0.656 1.438-0.594zm-43.656 0.094l1.218 0.906-0.031 1.563-1.187-0.875v-1.594zm3.375 0.781l0.406 0.282 0.063 9.032-0.688-0.03 0.219-9.284zm40.312 0.282l0.031 1.031-1.406 0.593-0.062-1.031 1.437-0.593zm-4.656 0.718l0.031 0.688-0.5 0.218-0.281-0.562 0.75-0.344zm-34.906 0.188l1.75 1.312v0.469l-1.75-1.313v-0.468zm-4.125 0.281l1.156 0.844v0.375l-1.125-0.844-0.031-0.375zm6.5 0.187l1.781 1.594-0.469-0.062-1.594-1.282 0.282-0.25zm31.375 0.126c0.171 0.01 0.419 0.192 0.562 0.218-0.542 0.679-0.25 0.824-0.312 1.594-0.118-0.049-0.428-0.104-0.469-0.156-0.362-0.459-0.069-1.023 0.094-1.594 0.041-0.051 0.068-0.066 0.125-0.062zm-31.719 0.437l1.531 1.156-0.219 9.249-1.406-1.16 0.094-9.245zm32.906 0l0.032 1.063-0.438 0.187c-0.609-0.329-0.583-0.402-0.031-1.063l0.437-0.187zm-39.031 0.031l1.125 0.844-0.031 0.438-1.094-0.844v-0.438zm4.094 0.094l1.719 1.281-0.032 1.563-1.687-1.25v-1.594zm-4.094 1.062l1.094 0.813-0.063 1.563-1.031-0.782v-1.594zm7.875 0.063l0.5 0.187 0.125 9.128-0.75 0.06 0.125-9.375zm2.844 1.063l1.781 1.593-0.469-0.062-1.594-1.281 0.282-0.25zm-6.625 0.031l1.656 1.281v0.375l-1.625-1.281-0.031-0.375zm4.625 0.125l1.375 1.031v0.437l-1.375-1.031v-0.437zm1.656 0.406l1.531 1.156-0.219 9.254-1.406-1.16 0.094-9.25zm-6.25 0.281l1.625 1.219-0.031 0.44-1.594-1.221v-0.438zm4.594 0.438l1.344 1.031-0.032 1.56-1.312-0.97v-1.621zm3.5 0.561l0.406 0.28 0.062 9.03-0.687-0.03 0.219-9.28zm-8.094 0.16l1.594 1.15-0.063 1.6-1.531-1.19v-1.56zm8.844 1.37l2.25 1.72-0.219 0.22-2.031-1.53v-0.41zm-4.25 0.16l1.281 0.94v0.43l-1.25-0.97-0.031-0.4zm0.031 0.81l1.219 0.94v0.41l-1.219-0.94v-0.41zm4.219 0.16l1.656 1.25-0.094 1.53-1.562-1.19v-1.59zm-4.219 0.97l1.187 0.9-0.031 1.6-1.156-0.91v-1.59zm6.813 0.09v1.91l-0.563-0.04c0.277-0.71 0.102-1.25 0.063-1.84l0.5-0.03zm-2.563 2l2.031 1.56-0.218 0.22-1.813-1.37v-0.41zm0 1.13l1.437 1.09-0.093 1.53-1.344-1.03v-1.59zm2.375 0.9v1.91l-0.562-0.03c0.277-0.72 0.101-1.26 0.062-1.85l0.5-0.03z"/>
  </g>
  <metadata>
    <rdf:RDF>
      <cc:Work>
        <dc:format>image/svg+xml</dc:format>
        <dc:type rdf:resource="http://purl.org/dc/dcmitype/StillImage"/>
        <cc:license rdf:resource="http://creativecommons.org/licenses/publicdomain/"/>
        <dc:publisher>
          <cc:Agent rdf:about="http://openclipart.org/">
            <dc:title>Openclipart</dc:title>
          </cc:Agent>
        </dc:publisher>
      </cc:Work>
      <cc:License rdf:about="http://creativecommons.org/licenses/publicdomain/">
        <cc:permits rdf:resource="http://creativecommons.org/ns#Reproduction"/>
        <cc:permits rdf:resource="http://creativecommons.org/ns#Distribution"/>
        <cc:permits rdf:resource="http://creativecommons.org/ns#DerivativeWorks"/>
      </cc:License>
    </rdf:RDF>
  </metadata>
</svg>
