<?xml version="1.0" encoding="UTF-8"?>
<!DOCTYPE svg PUBLIC "-//W3C//DTD SVG 1.1//EN" "http://www.w3.org/Graphics/SVG/1.1/DTD/svg11.dtd">
<svg version="1.1" xmlns="http://www.w3.org/2000/svg" xmlns:xlink="http://www.w3.org/1999/xlink" x="0" y="0" width="476" height="477" viewBox="0, 0, 476, 477">
  <defs>
    <clipPath id="Clip_1">
      <path d="M0.06,0.731 L475.872,0.731 L475.872,477 L0.06,477 z"/>
    </clipPath>
    <clipPath id="Clip_2">
      <path d="M0.06,0.731 L475.872,0.731 L475.872,477 L0.06,477 z"/>
    </clipPath>
  </defs>
  <g id="Layer_1">
    <path d="M150.525,206.922 C150.525,206.922 161.891,194.278 168.006,203.425 C172.782,210.571 162.245,218.228 156.415,224.049 C150.586,229.872 137.701,239.559 137.701,239.559 L150.525,206.922" fill="#F6C591"/>
    <path d="M153.011,208.494 L144.253,230.78 C147.861,227.876 151.836,224.54 154.374,222.006 C155.322,221.059 156.356,220.097 157.451,219.079 C163.58,213.377 168.072,208.721 165.605,205.03 C164.397,203.223 163.222,202.992 162.333,202.992 C159.026,202.992 154.709,206.742 153.011,208.494 z M131.281,248 L148.028,205.38 L148.377,204.992 C149.093,204.195 155.563,197.215 162.333,197.215 C164.612,197.215 167.863,198.014 170.408,201.819 C175.803,209.894 167.47,217.647 161.385,223.308 C160.329,224.291 159.332,225.219 158.456,226.093 C152.552,231.991 139.969,241.467 139.437,241.868 L131.281,248" fill="#F2B272"/>
    <path d="M148.194,215.085 L158.687,190.607 L128.374,163.793 L82.92,188.276 L70.246,253.414 L80.836,282.298 L114,264.968 L141.785,250.075 L148.194,215.085" fill="#F6C591"/>
    <path d="M73.234,253.176 L82.415,278.214 L112.662,262.408 L139.195,248.187 L145.411,214.245 L155.21,191.388 L127.97,167.292 L85.494,190.171 L73.234,253.176 z M79.257,286.382 L67.257,253.652 L80.347,186.382 L128.778,160.294 L162.164,189.827 L150.977,215.924 L144.375,251.964 L115.365,267.514 L79.257,286.382" fill="#F2B272"/>
    <path d="M108.868,256.744 L104.811,253.304 C114.931,241.367 118.727,231.608 116.094,224.298 C112.622,214.657 98.81,212.094 98.67,212.069 L99.603,206.831 C100.294,206.955 116.596,209.991 121.1,222.495 C124.424,231.727 120.309,243.25 108.868,256.744" fill="#A77742"/>
    <path d="M130.933,229.441 L119.672,229.441 L119.672,224.121 L126.387,224.121 L129.593,203.822 L106.832,191.243 L109.405,186.587 L135.43,200.968 L130.933,229.441" fill="#A77742"/>
    <path d="M131.396,224.738 L130.407,219.51 L137.957,218.084 L142.393,195.917 L122.693,182.78 L125.646,178.354 L148.309,193.467 L142.469,222.645 L131.396,224.738" fill="#A77742"/>
    <path d="M143.557,216.115 L143.278,210.803 L150.37,210.429 L154.436,190.501 L134.759,175.634 L137.966,171.389 L160.32,188.278 L154.759,215.526 L143.557,216.115" fill="#A77742"/>
    <path d="M123.259,285.021 L125.591,266.367 L67.305,271.031 L73.134,299.004 L123.259,285.021" fill="#CDE9EA"/>
    <path d="M69.427,272.62 L74.468,296.812 L121.664,283.645 L123.584,268.286 L69.427,272.62 z M71.8,301.197 L65.183,269.442 L127.598,264.447 L124.854,286.396 L71.8,301.197" fill="#9ED6E3"/>
    <path d="M379.263,246.45 L475.872,292.241 L450.193,477 L230.001,477 L206.292,297.379 L287.039,248.224 L379.263,246.45" fill="#868788"/>
    <path d="M317.185,216.31 L310.092,265.96 L331.379,289.007 L357.976,271.287 L349.108,210.984 L317.185,216.31" fill="#F2B272"/>
    <path d="M336.253,407.806 L281.72,251.775 L330.348,272.234 L386.348,253.549 L336.253,407.806" fill="#CDE9EA"/>
    <path d="M284.677,254.921 L336.193,402.318 L383.608,256.312 L330.277,274.106 L284.677,254.921 z M336.314,413.294 L278.763,248.629 L330.419,270.362 L389.088,250.787 L336.314,413.294" fill="#9ED6E3"/>
    <path d="M302.292,236.4 L330.348,272.234 L302.292,301.847 L281.916,252.332 L302.292,236.4" fill="#CDE9EA"/>
    <path d="M284.042,252.895 L302.883,298.674 L328.037,272.126 L301.992,238.86 L284.042,252.895 z M301.702,305.019 L279.789,251.77 L302.593,233.939 L332.66,272.343 L301.702,305.019" fill="#9ED6E3"/>
    <path d="M364.632,230.157 L330.348,272.234 L363.068,300.29 L385.19,245.065 L364.632,230.157" fill="#CDE9EA"/>
    <path d="M332.788,272.016 L362.351,297.366 L383.054,245.682 L364.945,232.549 L332.788,272.016 z M363.785,303.214 L327.909,272.453 L364.32,227.765 L387.326,244.449 L363.785,303.214" fill="#9ED6E3"/>
    <path d="M262.208,107.206 C262.208,107.206 226.684,86.882 221.238,112.074 C215.792,137.271 258.004,138.633 258.004,138.633 L262.208,107.206" fill="#F2B272"/>
    <path d="M410.733,126.974 C410.733,126.974 450.163,122.032 444.868,150.66 C437.714,189.322 389.89,161.295 389.89,161.295 L410.733,126.974" fill="#F2B272"/>
    <path d="M265.76,69.086 C250.678,103.67 248.022,157.761 256.003,193.225 C265.76,239.334 313.642,237.567 346.446,218.054 C381.917,196.776 407.191,155.798 414.284,117.669 C416.059,104.363 415.607,80.609 412.065,67.311 C407.634,46.919 350.003,48.695 332.267,46.919 C313.642,46.032 288.813,46.032 274.626,61.113 L265.76,69.086" fill="#F6C591"/>
    <path d="M268.16,70.813 C254.4,102.872 250.378,155.072 258.821,192.591 C265.367,223.524 288.901,228.14 302.348,228.141 C302.349,228.141 302.351,228.141 302.353,228.141 C316.007,228.141 331.541,223.56 344.969,215.572 C377.879,195.831 403.964,157.227 411.43,117.214 C413.15,104.225 412.689,80.878 409.274,68.054 L409.243,67.924 C406.078,53.36 366.338,51.542 344.99,50.565 C339.797,50.328 335.308,50.123 332.055,49.801 C329.267,49.669 325.093,49.495 320.774,49.495 C307.357,49.495 288.195,50.904 276.73,63.092 L276.558,63.261 L268.16,70.813 z M302.353,233.918 C302.35,233.918 302.35,233.918 302.347,233.918 C276.491,233.916 258.569,219.301 253.178,193.823 C244.455,155.065 248.723,100.928 263.112,67.932 L263.363,67.357 L272.607,59.044 C285.611,45.311 306.317,43.718 320.774,43.718 C325.254,43.718 329.558,43.898 332.405,44.034 L332.555,44.045 C335.658,44.356 340.105,44.56 345.253,44.795 C371.315,45.987 410.684,47.789 414.873,66.63 C418.507,80.346 418.985,104.274 417.147,118.051 L417.124,118.197 C409.386,159.791 382.227,199.959 347.931,220.531 C333.626,229.04 317.016,233.918 302.353,233.918" fill="#F2B272"/>
    <path d="M356.757,121.22 C356.757,125.726 358.886,129.381 361.518,129.381 C364.152,129.381 366.287,125.726 366.287,121.22 C366.287,116.699 364.152,113.036 361.518,113.036 C358.886,113.036 356.757,116.699 356.757,121.22" fill="#4A4543"/>
    <path d="M282.526,108.906 C282.526,113.419 284.661,117.083 287.294,117.083 C289.926,117.083 292.063,113.419 292.063,108.906 C292.063,104.393 289.926,100.737 287.294,100.737 C284.661,100.737 282.526,104.393 282.526,108.906" fill="#4A4543"/>
    <g clip-path="url(#Clip_1)">
      <path d="M322.299,166.498 C319.292,159.198 308.737,158.555 301.029,158.085 C298.599,157.937 296.501,157.809 294.813,157.496 L295.484,152.227 C304.121,152.804 314.92,135.511 318.453,120.2 L323.636,121.396 C321.092,132.425 314.467,146.194 306.271,153.131 C314.287,153.881 323.702,155.933 327.219,164.472 L322.299,166.498" fill="#A77742"/>
      <path d="M404.077,64.655 C375.705,64.655 345.558,62.001 316.297,64.655 C290.581,67.311 242.697,84.167 239.155,72.636 C248.022,62.001 266.647,58.442 279.05,52.237 C271.069,51.351 239.155,52.237 237.379,42.49 C234.724,30.071 277.283,30.958 285.263,30.071 C271.069,25.64 218.763,4.354 261.321,1.699 C283.488,-0.077 307.43,0.811 329.596,2.587 C368.611,6.137 443.98,22.09 443.98,72.636 C443.98,87.702 436.894,100.121 430.681,113.419 C424.468,124.951 406.74,158.655 392.554,158.655 C392.546,140.919 398.759,122.295 401.415,108.989 C404.077,94.811 406.747,84.16 407.634,69.086 L404.077,64.655" fill="#A0988D"/>
    </g>
    <path d="M286.143,31.846 C275.507,31.846 252.454,33.629 242.697,38.051 C230.279,45.152 238.267,47.815 249.79,48.695 C259.546,49.583 269.294,48.695 278.163,49.583 C270.182,49.583 216.98,56.674 232.949,77.074 C240.923,85.935 282.6,77.074 293.236,74.412 C312.748,70.861 331.372,68.207 350.875,66.431 C365.061,65.543 379.255,66.431 393.434,66.431 C407.627,66.431 406.74,66.431 407.627,81.505 C408.514,101.897 408.514,122.295 408.514,143.575 C428.906,136.474 434.232,103.678 437.774,85.935 C442.206,58.45 439.549,46.032 412.057,38.938 C376.592,30.071 337.577,28.304 301.224,30.958 C296.786,30.958 292.348,31.846 287.918,32.733 L286.143,31.846" fill="#6F6B5F"/>
    <path d="M332.259,319.358 C335.583,319.283 361.518,318.034 358.194,389.852 L334.914,433.081 L311.642,394.507 C311.642,394.507 303.662,320.027 332.259,319.358" fill="#4A7CB2"/>
    <path d="M343.196,365.994 L331.507,311.867 L322.714,365.94 L331.649,349.724 L343.196,365.994" fill="#3D5777"/>
    <path d="M311.581,302.201 C311.716,312.927 320.533,321.502 331.244,321.359 C341.955,321.224 350.522,312.423 350.378,301.689 L350.281,293.941 C350.145,283.231 341.337,274.649 330.62,274.791 C319.923,274.942 311.326,283.742 311.477,294.46 L311.581,302.201" fill="#4A7CB2"/>
    <path d="M383.941,241.29 L414.999,275.928 L396.202,287.037 L412.08,306.383 C412.08,306.383 351.027,418.329 334.388,436.561 L383.941,241.29" fill="#868788"/>
    <path d="M385.408,247.252 L340.771,423.153 C361.63,392.13 401.96,318.84 408.61,306.708 L393.969,288.87 C393.434,288.218 393.21,287.365 393.357,286.535 C393.504,285.704 394.006,284.98 394.732,284.551 L410.497,275.233 L385.408,247.252 z M334.387,439.45 C333.92,439.45 333.451,439.336 333.018,439.104 C331.852,438.476 331.263,437.134 331.588,435.851 L381.141,240.58 C381.404,239.545 382.215,238.74 383.25,238.485 C384.291,238.231 385.379,238.567 386.091,239.362 L417.149,274 C417.727,274.644 417.985,275.513 417.853,276.368 C417.721,277.223 417.213,277.974 416.468,278.414 L400.572,287.809 L414.312,304.551 C415.059,305.461 415.179,306.733 414.616,307.766 C412.116,312.35 353.204,420.228 336.522,438.508 C335.959,439.124 335.179,439.45 334.387,439.45" fill="#6A6A6A"/>
    <path d="M286.143,242.621 L255.079,277.259 L273.875,288.376 L257.989,307.722 C257.989,307.722 318.141,418.532 334.779,436.756 L286.143,242.621" fill="#868788"/>
    <path d="M261.457,308.05 C268.038,320.114 307.789,392.669 328.466,423.445 L284.663,248.598 L259.581,276.565 L275.345,285.89 C276.071,286.319 276.573,287.044 276.719,287.874 C276.866,288.705 276.642,289.557 276.107,290.209 L261.457,308.05 z M334.78,439.645 C333.988,439.645 333.208,439.32 332.646,438.704 C315.962,420.429 257.913,313.637 255.45,309.1 C254.89,308.067 255.011,306.797 255.756,305.889 L269.504,289.147 L253.609,279.745 C252.864,279.304 252.356,278.553 252.225,277.698 C252.093,276.843 252.351,275.975 252.929,275.331 L283.993,240.693 C284.706,239.897 285.8,239.561 286.837,239.817 C287.875,240.074 288.685,240.883 288.945,241.919 L337.581,436.054 C337.902,437.337 337.311,438.675 336.145,439.301 C335.713,439.533 335.245,439.645 334.78,439.645" fill="#6A6A6A"/>
    <path d="M378.811,381.872 L430.019,370.566 L430.681,389.19 L379.481,400.496 L378.811,381.872" fill="#868788"/>
    <path d="M381.784,384.173 L382.243,396.928 L427.709,386.888 L427.255,374.134 L381.784,384.173 z M379.481,403.384 C378.847,403.384 378.224,403.175 377.713,402.78 C377.035,402.254 376.625,401.457 376.594,400.599 L375.924,381.975 C375.875,380.583 376.827,379.352 378.188,379.051 L429.396,367.746 C430.234,367.558 431.109,367.757 431.788,368.283 C432.465,368.807 432.875,369.606 432.906,370.463 L433.568,389.087 C433.618,390.48 432.665,391.71 431.304,392.01 L380.104,403.316 C379.897,403.362 379.689,403.384 379.481,403.384" fill="#6A6A6A"/>
    <path d="M206.292,297.379 L148.901,368.942 L132.586,281.523 L59.151,292.009 L120.311,464.266 L224.292,392.394 L206.292,297.379" fill="#868788"/>
    <path d="M323.921,195.195 C311.824,195.195 301.98,189.715 301.455,189.417 L304.075,184.787 C304.222,184.869 318.88,192.977 333.108,188.521 C341.375,185.931 348.007,179.575 352.821,169.629 L357.61,171.947 C352.123,183.285 344.399,190.574 334.654,193.612 C331.003,194.75 327.37,195.195 323.921,195.195" fill="#A77742"/>
    <path d="M143.463,33.599 L162.342,37.254 L145.561,132.434 L135.091,131.261 L143.463,33.599" fill="#FCEE83"/>
    <g clip-path="url(#Clip_2)">
      <path d="M75.714,46.04 L94.662,42.85 L112.308,137.88 L102.085,140.445 L75.714,46.04" fill="#FCEE83"/>
      <path d="M-0,93.773 L14.329,80.986 L79.873,152.007 L72.593,159.617 L-0,93.773" fill="#FCEE83"/>
    </g>
  </g>
</svg>
