<?xml version="1.0"?>
<svg xmlns:rdf="http://www.w3.org/1999/02/22-rdf-syntax-ns#" xmlns="http://www.w3.org/2000/svg" xmlns:cc="http://creativecommons.org/ns#" xmlns:xlink="http://www.w3.org/1999/xlink" xmlns:dc="http://purl.org/dc/elements/1.1/" xmlns:svg="http://www.w3.org/2000/svg" id="svg2" viewBox="0 0 425.12 655.71" version="1.1">
  <defs id="defs4">
    <linearGradient id="linearGradient4123" y2="560.85" gradientUnits="userSpaceOnUse" x2="682.57" gradientTransform="matrix(.68102 0 0 .68102 92.686 34.517)" y1="560.85" x1="126.34">
      <stop id="stop4107" stop-color="#311400" offset="0"/>
      <stop id="stop4125" stop-color="#ba5700" offset=".50347"/>
      <stop id="stop4109" stop-color="#3a2100" offset="1"/>
    </linearGradient>
  </defs>
  <g id="layer1" transform="translate(-178.72 16.268)">
    <path id="rect3331" d="m178.72 200.32v432.3h302.2v-143.75s108.54-4.8234 112.28-15.74c3.7432-10.916 21.93-244.51 0-245.55-21.93-1.0362-112.28 0-112.28 0v-27.262h-302.2zm303.27 61.89s60.399-0.65212 73.451 0c13.068 0.65294 6.9762 162.15 0 177.34-5.8884 12.817-73.451 9.4438-73.451 9.4438v-186.78z" fill="url(#linearGradient4123)"/>
    <g id="text4127" transform="matrix(.52532 .85090 -.85090 .52532 0 0)">
      <path id="path4148" style="" d="m379.67-61.132 9.289 2.3462c-1.9472 7.6291-5.4505 13.447-10.51 17.453-5.0595 4.0061-11.244 6.0091-18.554 6.0091-7.5653-0.000001-13.718-1.5402-18.458-4.6205-4.7403-3.0804-8.3473-7.5413-10.821-13.383-2.4739-5.8415-3.7108-12.114-3.7108-18.817-0.00001-7.3098 1.3965-13.686 4.1896-19.129 2.7931-5.4424 6.7672-9.5762 11.922-12.401 5.1552-2.8249 10.829-4.2374 17.022-4.2375 7.0225 0.00008 12.928 1.7876 17.716 5.3627 4.7881 3.5752 8.1238 8.6027 10.007 15.083l-9.1453 2.1547c-1.628-5.1073-3.9902-8.8261-7.0864-11.156-3.0964-2.3302-6.9907-3.4953-11.683-3.4953-5.3946 0.000064-9.9035 1.2929-13.526 3.8784-3.623 2.5856-6.1687 6.057-7.6371 10.414-1.4684 4.3572-2.2026 8.8501-2.2025 13.479-0.00002 5.9692 0.86982 11.18 2.6095 15.633s4.445 7.7807 8.1159 9.9832 7.645 3.3038 11.922 3.3038c5.203 0.000007 9.6081-1.5003 13.215-4.5008 3.607-3.0005 6.0489-7.4535 7.3258-13.359z"/>
      <path id="path4150" style="" d="m397.62-70.708c-0.00001-11.651 3.1282-20.772 9.3847-27.364 6.2565-6.5916 14.332-9.8874 24.228-9.8875 6.4799 0.00007 12.321 1.5482 17.525 4.6445 5.203 3.0964 9.1692 7.4137 11.898 12.952 2.7292 5.5383 4.0938 11.819 4.0938 18.841-0.00007 7.1184-1.4365 13.487-4.3093 19.105-2.8729 5.6181-6.9428 9.8715-12.21 12.76-5.267 2.8888-10.949 4.3333-17.046 4.3333-6.6076-0.000001-12.513-1.596-17.716-4.7881-5.2031-3.1921-9.1453-7.5493-11.827-13.072-2.6814-5.5223-4.022-11.364-4.022-17.525zm9.5762 0.14364c-0.00002 8.459 2.2743 15.123 6.8231 19.99 4.5487 4.8679 10.255 7.3019 17.118 7.3019 6.9906 0.000007 12.744-2.4579 17.261-7.3737 4.5167-4.9158 6.7751-11.89 6.7752-20.924-0.00006-5.7138-0.96566-10.701-2.8968-14.963-1.9313-4.2614-4.7563-7.5652-8.475-9.9114-3.7188-2.3461-7.8925-3.5192-12.521-3.5193-6.5757 0.000064-12.234 2.2585-16.974 6.7752-4.7403 4.5168-7.1104 12.058-7.1104 22.624z"/>
      <path id="path4152" style="" d="m477.15-36.521v-70.194h47.355v8.2835h-38.066v21.738h32.942v8.2835h-32.942v31.889z"/>
      <path id="path4154" style="" d="m537.1-36.521v-70.194h47.355v8.2835h-38.066v21.738h32.942v8.2835h-32.942v31.889z"/>
      <path id="path4156" style="" d="m596.76-36.521v-70.194h50.754v8.2835h-41.465v21.499h38.832v8.2356h-38.832v23.893h43.093v8.2835z"/>
      <path id="path4158" style="" d="m662.26-36.521v-70.194h50.754v8.2835h-41.465v21.499h38.832v8.2356h-38.832v23.893h43.093v8.2835z"/>
    </g>
    <path id="path4131" d="m178.72 639.44c-1.5163-0.0495 0-8.3692 0-8.3692h302.2s0.74533 5.5304 0 8.3692c-0.81542 3.1057-300.69 0.0495-302.2 0z"/>
    <path id="path4135" d="m178.72 201.86v-8.3692h302.2v8.3692h-302.2z"/>
    <path id="path4137" fill="#999" d="m332.03 178.48s-22.079-30.005-18.116-51.518c3.9629-21.513 27.741-63.407 29.439-80.957 1.6984-17.55-15.852-62.275-15.852-62.275s25.261 36.006 24.91 62.841c-0.30482 23.32-24.59 74.503-28.873 84.354-5.6613 13.021 9.6243 48.121 8.492 47.555z"/>
    <path id="path4139" fill="#999" d="m256.77 177.18s-16.454-22.36-13.5-38.392c2.9532-16.032 20.672-47.251 21.938-60.33 1.2657-13.078-11.813-46.407-11.813-46.407s18.824 26.832 18.563 46.829c-0.22715 17.378-18.324 55.52-21.516 62.861-4.2188 9.7034 7.172 35.86 6.3283 35.438z"/>
    <path id="path4141" fill="#999" d="m410.87 179.79s-16.454-22.36-13.5-38.392c2.9532-16.032 20.672-47.251 21.938-60.33 1.2657-13.078-11.813-46.407-11.813-46.407s18.824 26.832 18.563 46.829c-0.22715 17.378-18.324 55.52-21.516 62.861-4.2188 9.7034 7.172 35.86 6.3283 35.438z"/>
    <path id="path4143" fill="#999" d="m449.47 182.4s-11.124-15.117-9.1273-25.956c1.9966-10.839 13.976-31.946 14.832-40.788 0.85569-8.8421-7.9864-31.375-7.9864-31.375s12.727 18.141 12.55 31.66c-0.15357 11.749-12.389 37.536-14.547 42.499-2.8523 6.5603 4.8489 24.244 4.2784 23.959z"/>
    <path id="path4145" fill="#999" d="m198.74 182.4s-11.124-15.117-9.1273-25.956c1.9966-10.839 13.976-31.946 14.832-40.788 0.85569-8.8421-7.9864-31.375-7.9864-31.375s12.727 18.141 12.55 31.66c-0.15357 11.749-12.389 37.536-14.547 42.499-2.8523 6.5603 4.8489 24.244 4.2784 23.959z"/>
  </g>
  <metadata>
    <rdf:RDF>
      <cc:Work>
        <dc:format>image/svg+xml</dc:format>
        <dc:type rdf:resource="http://purl.org/dc/dcmitype/StillImage"/>
        <cc:license rdf:resource="http://creativecommons.org/licenses/publicdomain/"/>
        <dc:publisher>
          <cc:Agent rdf:about="http://openclipart.org/">
            <dc:title>Openclipart</dc:title>
          </cc:Agent>
        </dc:publisher>
        <dc:title>CoffeeMug</dc:title>
        <dc:date>2010-07-17T14:33:03</dc:date>
        <dc:description>Coffee,Drink,hot,Brown,cappuccino,americano,bujung</dc:description>
        <dc:source>http://openclipart.org/detail/73579/coffeemug-by-aungkarns</dc:source>
        <dc:creator>
          <cc:Agent>
            <dc:title>aungkarns</dc:title>
          </cc:Agent>
        </dc:creator>
        <dc:subject>
          <rdf:Bag>
            <rdf:li>Brown</rdf:li>
            <rdf:li>Coffee</rdf:li>
            <rdf:li>Drink</rdf:li>
            <rdf:li>americano</rdf:li>
            <rdf:li>bujung</rdf:li>
            <rdf:li>cappuccino</rdf:li>
            <rdf:li>clip art</rdf:li>
            <rdf:li>clipart</rdf:li>
            <rdf:li>hot</rdf:li>
          </rdf:Bag>
        </dc:subject>
      </cc:Work>
      <cc:License rdf:about="http://creativecommons.org/licenses/publicdomain/">
        <cc:permits rdf:resource="http://creativecommons.org/ns#Reproduction"/>
        <cc:permits rdf:resource="http://creativecommons.org/ns#Distribution"/>
        <cc:permits rdf:resource="http://creativecommons.org/ns#DerivativeWorks"/>
      </cc:License>
    </rdf:RDF>
  </metadata>
</svg>
